<svg xmlns="http://www.w3.org/2000/svg" width="248.23016357421875" height="270.594482421875" viewBox="-28.969465255737305 -41.66676712036133 248.23016357421875 270.594482421875"><title>Neo4j Graph Visualization</title><desc>Created using Neo4j (http://www.neo4j.com/)</desc><g class="layer relationships"><g class="relationship" transform="translate(109.41044480747428 -12.666765872370606) rotate(400.700827848597)"><path class="outline" fill="#A5ABB6" stroke="none" d="M 25 0.5 L 32.59985218665723 0.5 L 32.59985218665723 -0.5 L 25 -0.5 Z M 67.04516468665723 0.5 L 74.64501687331446 0.5 L 74.64501687331446 3.5 L 81.64501687331446 0 L 74.64501687331446 -3.5 L 74.64501687331446 -0.5 L 67.04516468665723 -0.5 Z"/><text text-anchor="middle" pointer-events="none" font-size="8px" fill="#000000" x="49.82250843665723" y="3" font-family="sans-serif">ORIGIN</text></g><g class="relationship" transform="translate(109.41044480747428 -12.666765872370606) rotate(461.79203398522395)"><path class="outline" fill="#A5ABB6" stroke="none" d="M 25 0.5 L 25.528273392251393 0.5 L 25.528273392251393 -0.5 L 25 -0.5 Z M 74.20014839225139 0.5 L 74.72842178450279 0.5 L 74.72842178450279 3.5 L 81.72842178450279 0 L 74.72842178450279 -3.5 L 74.72842178450279 -0.5 L 74.20014839225139 -0.5 Z"/><text text-anchor="middle" pointer-events="none" font-size="8px" fill="#000000" x="49.86421089225139" y="3" transform="rotate(180 49.86421089225139 0)" font-family="sans-serif">DESTINA…</text></g><g class="relationship" transform="translate(0.030534280570877426 152.7168351507126) rotate(325.17987449895446)"><path class="outline" fill="#A5ABB6" stroke="none" d="M 25 0.5 L 32.6113072191074 0.5 L 32.6113072191074 -0.5 L 25 -0.5 Z M 67.0566197191074 0.5 L 74.6679269382148 0.5 L 74.6679269382148 3.5 L 81.6679269382148 0 L 74.6679269382148 -3.5 L 74.6679269382148 -0.5 L 67.0566197191074 -0.5 Z"/><text text-anchor="middle" pointer-events="none" font-size="8px" fill="#000000" x="49.8339634691074" y="3" font-family="sans-serif">ORIGIN</text></g><g class="relationship" transform="translate(0.030534280570877426 152.7168351507126) rotate(386.26369194913036)"><path class="outline" fill="#A5ABB6" stroke="none" d="M 25 0.5 L 25.50930696386125 0.5 L 25.50930696386125 -0.5 L 25 -0.5 Z M 74.18118196386125 0.5 L 74.6904889277225 0.5 L 74.6904889277225 3.5 L 81.6904889277225 0 L 74.6904889277225 -3.5 L 74.6904889277225 -0.5 L 74.18118196386125 -0.5 Z"/><text text-anchor="middle" pointer-events="none" font-size="8px" fill="#000000" x="49.84524446386125" y="3" font-family="sans-serif">DESTINA…</text></g><g class="relationship" transform="translate(190.260689069606 56.877447594050615) rotate(521.2084788648128)"><path class="outline" fill="#A5ABB6" stroke="none" d="M 5.987513214418485,-24.277555179777966 L 6.953439040707552,-24.018736134675446 A 47.0301351990425 47.0301351990425 0 0 1 15.65831925115289,-41.22796349191468 L 14.877484966140585,-41.852701692563016 A 48.0301351990425 48.0301351990425 0 0 0 5.987513214418485,-24.277555179777966 Z M 85.9370076981881,-46.21055565150857 L 85.23836410045932,-45.49508578956288 A 47.0301351990425 47.0301351990425 0 0 1 95.98087718207859,-29.478505055754717 L 93.19969343122025,-28.353775335350036 L 99.06877715483256,-23.17653125715273 L 99.68912218322302,-30.97814468296096 L 96.90793843236469,-29.85341496255628 A 48.0301351990425 48.0301351990425 0 0 0 85.9370076981881,-46.21055565150857"/><text text-anchor="middle" pointer-events="none" font-size="8px" fill="#000000" x="49.47165556991931" y="-56.28744808773081" transform="rotate(180 49.47165556991931 -59.28744808773081)" font-family="sans-serif">BUSINESS_FLIGHT</text></g><g class="relationship" transform="translate(190.260689069606 56.877447594050615) rotate(521.2084788648128)"><path class="outline" fill="#A5ABB6" stroke="none" d="M 14.44320574945421,-20.411854586953456 L 15.247803529220876,-19.818034401379958 A 46.15133007808831 46.15133007808831 0 0 1 16.216481023276657,-21.08417831641129 L 15.432872400104536,-21.70543311574108 A 47.15133007808831 47.15133007808831 0 0 0 14.44320574945421,-20.411854586953456 Z M 86.22165460514003,-25.24630006411173 L 85.50395282863093,-24.549949462765184 A 46.15133007808831 46.15133007808831 0 0 1 86.5941444649654,-23.386790532469142 L 84.37017281580074,-21.37334818074614 L 91.66283856051318,-18.533097076372126 L 89.55943999718494,-26.07138033476648 L 87.33546834802029,-24.05793798304348 A 47.15133007808831 47.15133007808831 0 0 0 86.22165460514003,-25.24630006411173"/><text text-anchor="middle" pointer-events="none" font-size="8px" fill="#000000" x="50.05046753501479" y="-36.00552115489664" transform="rotate(180 50.05046753501479 -39.00552115489664)" font-family="sans-serif">BUSINESS_FLIGHT</text></g><g class="relationship" transform="translate(190.260689069606 56.877447594050615) rotate(521.2084788648128)"><path class="outline" fill="#A5ABB6" stroke="none" d="M 20.90208894244944,-13.724164012497553 L 21.434121018964774,-12.87743981326927 A 58.167433112414045 58.167433112414045 0 0 1 22.745575968288858,-13.677522573565575 L 22.2360900981153,-14.538001596025445 A 59.167433112414045 59.167433112414045 0 0 0 20.90208894244944,-13.724164012497553 Z M 79.14993021619374,-16.391306878213648 L 78.69750448864856,-15.499504791955033 A 58.167433112414045 58.167433112414045 0 0 1 80.05823267999281,-14.78643726590228 L 78.63077559847567,-12.1478076442186 L 86.45294464417425,-11.895475679309552 L 81.96150878868234,-18.30461009481385 L 80.53405170716519,-15.665980473130173 A 59.167433112414045 59.167433112414045 0 0 0 79.14993021619374,-16.391306878213648"/><text text-anchor="middle" pointer-events="none" font-size="8px" fill="#000000" x="50.47166516573003" y="-19.262019773139897" transform="rotate(180 50.47166516573003 -22.262019773139897)" font-family="sans-serif">BUSINESS_…</text></g><g class="relationship" transform="translate(190.260689069606 56.877447594050615) rotate(521.2084788648128)"><path class="outline" fill="#A5ABB6" stroke="none" d="M 24.471206027250748,-5.139073415689509 L 24.657117634413662,-4.15650694245622 A 149.12432866346623 149.12432866346623 0 0 1 26.35377690545273,-4.46737931108683 L 26.179242779658857,-5.452030436579179 A 150.12432866346623 150.12432866346623 0 0 0 24.471206027250748,-5.139073415689509 Z M 75.24033023582233,-6.005685150546611 L 75.0880613184789,-5.017346050434156 A 149.12432866346623 149.12432866346623 0 0 1 76.79130400099879,-4.7448415990515675 L 76.30023236346425,-1.7853063911499727 L 83.7787314256916,-4.092263646121225 L 77.44606618437818,-8.69088854292036 L 76.95499454684364,-5.731353335018766 A 150.12432866346623 150.12432866346623 0 0 0 75.24033023582233,-6.005685150546611"/><text text-anchor="middle" pointer-events="none" font-size="8px" fill="#000000" x="50.69265715814503" y="-4.2467433951370595" transform="rotate(180 50.69265715814503 -7.2467433951370595)" font-family="sans-serif">BUSINES…</text></g><g class="relationship" transform="translate(190.260689069606 56.877447594050615) rotate(521.2084788648128)"><path class="outline" fill="#A5ABB6" stroke="none" d="M 24.471206027250748,5.139073415689509 L 24.657117634413662,4.15650694245622 A 149.12432866346623 149.12432866346623 0 0 0 24.8275870406803,4.188658803162639 L 24.64281856963605,5.171440880791238 A 150.12432866346623 150.12432866346623 0 0 1 24.471206027250748,5.139073415689509 Z M 76.78269526796561,5.759839752819971 L 76.62015243269114,4.773138264678323 A 149.12432866346623 149.12432866346623 0 0 0 76.79130400099879,4.7448415990515675 L 76.30023236346425,1.7853063911499727 L 83.7787314256916,4.092263646121225 L 77.44606618437818,8.69088854292036 L 76.95499454684364,5.731353335018766 A 150.12432866346623 150.12432866346623 0 0 1 76.78269526796561,5.759839752819971"/><text text-anchor="middle" pointer-events="none" font-size="8px" fill="#000000" x="50.69265715814507" y="10.24674339513706" transform="rotate(180 50.69265715814507 7.2467433951370595)" font-family="sans-serif">CHEAPES…</text></g><g class="relationship" transform="translate(190.260689069606 56.877447594050615) rotate(521.2084788648128)"><path class="outline" fill="#A5ABB6" stroke="none" d="M 20.90208894244944,13.724164012497553 L 21.434121018964774,12.87743981326927 A 58.167433112414045 58.167433112414045 0 0 0 21.61689547387755,12.99181267612289 L 21.08800561019735,13.84050314507865 A 59.167433112414045 59.167433112414045 0 0 1 20.90208894244944,13.724164012497553 Z M 80.34096014530515,15.76997782816705 L 79.86840459521302,14.888676941932886 A 58.167433112414045 58.167433112414045 0 0 0 80.05823267999281,14.78643726590228 L 78.63077559847567,12.1478076442186 L 86.45294464417425,11.895475679309552 L 81.96150878868234,18.30461009481385 L 80.53405170716519,15.665980473130173 A 59.167433112414045 59.167433112414045 0 0 1 80.34096014530515,15.76997782816705"/><text text-anchor="middle" pointer-events="none" font-size="8px" fill="#000000" x="50.47166516573002" y="25.262019773139897" transform="rotate(180 50.47166516573002 22.262019773139897)" font-family="sans-serif">CHEAPEST_…</text></g><g class="relationship" transform="translate(190.260689069606 56.877447594050615) rotate(521.2084788648128)"><path class="outline" fill="#A5ABB6" stroke="none" d="M 14.44320574945421,20.411854586953456 L 15.247803529220876,19.818034401379958 A 46.15133007808831 46.15133007808831 0 0 0 15.412671689864986,20.040027808475575 L 14.611646248324867,20.638658113426352 A 47.15133007808831 47.15133007808831 0 0 1 14.44320574945421,20.411854586953456 Z M 87.14523575340394,24.266800620261968 L 86.40794638208607,23.591223546241753 A 46.15133007808831 46.15133007808831 0 0 0 86.5941444649654,23.386790532469142 L 84.37017281580074,21.37334818074614 L 91.66283856051318,18.533097076372126 L 89.55943999718494,26.07138033476648 L 87.33546834802029,24.05793798304348 A 47.15133007808831 47.15133007808831 0 0 1 87.14523575340394,24.266800620261968"/><text text-anchor="middle" pointer-events="none" font-size="8px" fill="#000000" x="50.050467535014796" y="42.00552115489664" transform="rotate(180 50.050467535014796 39.00552115489664)" font-family="sans-serif">CHEAPEST_FLIGHT</text></g><g class="relationship" transform="translate(190.260689069606 56.877447594050615) rotate(521.2084788648128)"><path class="outline" fill="#A5ABB6" stroke="none" d="M 5.987513214418485,24.277555179777966 L 6.953439040707552,24.018736134675446 A 47.0301351990425 47.0301351990425 0 0 0 14.849430435982207,40.187406604022556 L 14.051396778445302,40.790019482609026 A 48.0301351990425 48.0301351990425 0 0 1 5.987513214418485,24.277555179777966 Z M 86.88675881689124,45.256780004029245 L 86.16834115201135,44.56116800097833 A 47.0301351990425 47.0301351990425 0 0 0 95.98087718207859,29.478505055754717 L 93.19969343122025,28.353775335350036 L 99.06877715483256,23.17653125715273 L 99.68912218322302,30.97814468296096 L 96.90793843236469,29.85341496255628 A 48.0301351990425 48.0301351990425 0 0 1 86.88675881689124,45.256780004029245"/><text text-anchor="middle" pointer-events="none" font-size="8px" fill="#000000" x="49.47165556991932" y="62.28744808773081" transform="rotate(180 49.47165556991932 59.28744808773081)" font-family="sans-serif">CHEAPEST_FLIGHT</text></g><g class="relationship" transform="translate(95.70704635219217 199.92769688236692) rotate(265.7115145197215)"><path class="outline" fill="#A5ABB6" stroke="none" d="M 17.324116139070416,-18.03122292025696 L 18.031222920256962,-17.324116139070412 A 48.563746978015736 48.563746978015736 0 0 1 18.853645583858878,-18.12729755542732 L 18.1634737122454,-18.850943040201145 A 49.563746978015736 49.563746978015736 0 0 0 17.324116139070416,-18.03122292025696 Z M 83.32244970523294,-21.69574721377299 L 82.6979716569788,-20.914704854327162 A 48.563746978015736 48.563746978015736 0 0 1 83.58726443642283,-20.186255969630473 L 81.65889469660551,-17.888128439105472 L 89.27095696428404,-16.06974783181092 L 86.15842408951256,-23.25042601033047 L 84.23005434969525,-20.95229847980547 A 49.563746978015736 49.563746978015736 0 0 0 83.32244970523294,-21.69574721377299"/><text text-anchor="middle" pointer-events="none" font-size="8px" fill="#000000" x="50.23092084332713" y="-29.001413711377715" transform="rotate(180 50.23092084332713 -32.001413711377715)" font-family="sans-serif">BUSINESS_FLI…</text></g><g class="relationship" transform="translate(95.70704635219217 199.92769688236692) rotate(265.7115145197215)"><path class="outline" fill="#A5ABB6" stroke="none" d="M 24.018736134675446,-6.953439040707552 L 24.277555179777966,-5.987513214418485 A 108.54464955364293 108.54464955364293 0 0 1 24.96620394354008,-6.169616363274244 L 24.713729280833135,-7.137219869205779 A 109.54464955364293 109.54464955364293 0 0 0 24.018736134675446,-6.953439040707552 Z M 76.6809316253048,-7.95461742529001 L 76.45901340295327,-6.979552144096829 A 108.54464955364293 108.54464955364293 0 0 1 77.15304872305043,-6.819197377682205 L 76.46811203303247,-3.8984334826254288 L 84.08232059318591,-5.70780575014974 L 78.06629764307439,-10.713549237757906 L 77.38136095305643,-7.79278534270113 A 109.54464955364293 109.54464955364293 0 0 0 76.6809316253048,-7.95461742529001"/><text text-anchor="middle" pointer-events="none" font-size="8px" fill="#000000" x="50.65601517239263" y="-7.172595880186222" transform="rotate(180 50.65601517239263 -10.172595880186222)" font-family="sans-serif">CHEAPES…</text></g><g class="relationship" transform="translate(87.5994293542326 91.8092391312147) rotate(445.7115145197215)"><path class="outline" fill="#A5ABB6" stroke="none" d="M 24.018736134675446,-6.953439040707552 L 24.277555179777966,-5.987513214418485 A 108.54464955364293 108.54464955364293 0 0 1 24.96620394354008,-6.169616363274244 L 24.713729280833135,-7.137219869205779 A 109.54464955364293 109.54464955364293 0 0 0 24.018736134675446,-6.953439040707552 Z M 76.6809316253048,-7.95461742529001 L 76.45901340295327,-6.979552144096829 A 108.54464955364293 108.54464955364293 0 0 1 77.15304872305043,-6.819197377682205 L 76.46811203303247,-3.8984334826254288 L 84.08232059318591,-5.70780575014974 L 78.06629764307439,-10.713549237757906 L 77.38136095305643,-7.79278534270113 A 109.54464955364293 109.54464955364293 0 0 0 76.6809316253048,-7.95461742529001"/><text text-anchor="middle" pointer-events="none" font-size="8px" fill="#000000" x="50.65601517239263" y="-7.172595880186222" font-family="sans-serif">CHEAPES…</text></g><g class="relationship" transform="translate(87.5994293542326 91.8092391312147) rotate(445.7115145197215)"><path class="outline" fill="#A5ABB6" stroke="none" d="M 17.324116139070416,-18.03122292025696 L 18.031222920256962,-17.324116139070412 A 48.563746978015736 48.563746978015736 0 0 1 18.853645583858878,-18.12729755542732 L 18.1634737122454,-18.850943040201145 A 49.563746978015736 49.563746978015736 0 0 0 17.324116139070416,-18.03122292025696 Z M 83.32244970523294,-21.69574721377299 L 82.6979716569788,-20.914704854327162 A 48.563746978015736 48.563746978015736 0 0 1 83.58726443642283,-20.186255969630473 L 81.65889469660551,-17.888128439105472 L 89.27095696428404,-16.06974783181092 L 86.15842408951256,-23.25042601033047 L 84.23005434969525,-20.95229847980547 A 49.563746978015736 49.563746978015736 0 0 0 83.32244970523294,-21.69574721377299"/><text text-anchor="middle" pointer-events="none" font-size="8px" fill="#000000" x="50.23092084332713" y="-29.001413711377715" font-family="sans-serif">BUSINESS_FLI…</text></g></g><g class="layer nodes"><g class="node" transform="translate(190.260689069606,56.877447594050615)"><circle class="outline" cx="0" cy="0" r="25" fill="#ECB5C9" stroke="#da7298" stroke-width="2px"/><text text-anchor="middle" pointer-events="none" font-family="sans-serif" dy="1.5625" font-size="25" fill="#2A2C34"/><text text-anchor="middle" pointer-events="none" x="0" y="5" font-size="10px" fill="#2A2C34" font-family="sans-serif"> CVG</text></g><g class="node" transform="translate(95.70704635219217,199.92769688236692)"><circle class="outline" cx="0" cy="0" r="25" fill="#ECB5C9" stroke="#da7298" stroke-width="2px"/><text text-anchor="middle" pointer-events="none" font-family="sans-serif" dy="1.5625" font-size="25" fill="#2A2C34"/><text text-anchor="middle" pointer-events="none" x="0" y="5" font-size="10px" fill="#2A2C34" font-family="sans-serif"> MSN</text></g><g class="node" transform="translate(109.41044480747428,-12.666765872370606)"><circle class="outline" cx="0" cy="0" r="25" fill="#4C8EDA" stroke="#2870c2" stroke-width="2px"/><text text-anchor="middle" pointer-events="none" font-family="sans-serif" dy="1.5625" font-size="25" fill="#FFFFFF"/><text text-anchor="middle" pointer-events="none" x="0" y="5" font-size="10px" fill="#FFFFFF" font-family="sans-serif"> 11/3/2015</text></g><g class="node" transform="translate(87.5994293542326,91.8092391312147)"><circle class="outline" cx="0" cy="0" r="25" fill="#ECB5C9" stroke="#da7298" stroke-width="2px"/><text text-anchor="middle" pointer-events="none" font-family="sans-serif" dy="1.5625" font-size="25" fill="#2A2C34"/><text text-anchor="middle" pointer-events="none" x="0" y="5" font-size="10px" fill="#2A2C34" font-family="sans-serif"> ORD</text></g><g class="node" transform="translate(0.030534280570877426,152.7168351507126)"><circle class="outline" cx="0" cy="0" r="25" fill="#4C8EDA" stroke="#2870c2" stroke-width="2px"/><text text-anchor="middle" pointer-events="none" font-family="sans-serif" dy="1.5625" font-size="25" fill="#FFFFFF"/><text text-anchor="middle" pointer-events="none" x="0" y="5" font-size="10px" fill="#FFFFFF" font-family="sans-serif"> 11/30/20…</text></g></g></svg>