<svg xmlns="http://www.w3.org/2000/svg" width="220.97686767578125" height="194.04959106445312" viewBox="-10.492158889770508 21.23965072631836 220.97686767578125 194.04959106445312"><title>Neo4j Graph Visualization</title><desc>Created using Neo4j (http://www.neo4j.com/)</desc><g class="layer relationships"><g class="relationship" transform="translate(181.4847263905267 61.41807838617447) rotate(186.0792313098736)"><path class="outline" fill="#A5ABB6" stroke="none" d="M 24.018736134675446,6.953439040707552 L 24.277555179777966,5.987513214418485 A 102.80853946199849 102.80853946199849 0 0 0 26.13786121849074,6.467396500936701 L 25.897137032516145,7.437990064838118 A 103.80853946199849 103.80853946199849 0 0 1 24.018736134675446,6.953439040707552 Z M 72.61286243104281,8.19155779680662 L 72.40356848131646,7.213705025369137 A 102.80853946199849 102.80853946199849 0 0 0 74.27838453633865,6.794072702756365 L 73.59579470089211,3.872759450716271 L 81.20854709700663,5.68824862872113 L 75.18850431693404,10.689157038809824 L 74.50591448148751,7.767843786769729 A 103.80853946199849 103.80853946199849 0 0 1 72.61286243104281,8.19155779680662"/><text text-anchor="middle" pointer-events="none" font-size="8px" fill="#000000" x="49.220117948900196" y="12.977191084941865" transform="rotate(180 49.220117948900196 9.977191084941865)" font-family="sans-serif">CHEAPE…</text></g><g class="relationship" transform="translate(76.52548930619996 50.23965064740861) rotate(483.3460341263157)"><path class="outline" fill="#A5ABB6" stroke="none" d="M 24.018736134675446,6.953439040707552 L 24.277555179777966,5.987513214418485 A 102.79353065177996 102.79353065177996 0 0 0 26.134191643829208,6.466483620766908 L 25.893434401373984,7.437068985485212 A 103.79353065177996 103.79353065177996 0 0 1 24.018736134675446,6.953439040707552 Z M 72.6090746984177,8.190685672235006 L 72.39974955130886,7.21283957862525 A 102.79353065177996 102.79353065177996 0 0 0 74.2708693995356,6.7940053353092935 L 73.58828585681314,3.8726906129275274 L 81.20103434221346,5.688196189353847 L 75.1809807898322,10.689091631818314 L 74.49839724710975,7.767776909436549 A 103.79353065177996 103.79353065177996 0 0 1 72.6090746984177,8.190685672235006"/><text text-anchor="middle" pointer-events="none" font-size="8px" fill="#000000" x="49.21636422098945" y="12.976679830044148" transform="rotate(180 49.21636422098945 9.976679830044148)" font-family="sans-serif">CHEAPE…</text></g><g class="relationship" transform="translate(18.507840442941713 138.40862350263333) rotate(366.1107712980098)"><path class="outline" fill="#A5ABB6" stroke="none" d="M 5.987513214418485,-24.277555179777966 L 6.953439040707552,-24.018736134675446 A 45.4916874524827 45.4916874524827 0 0 1 13.772180341090895,-38.538865677507104 L 12.956144344839586,-39.11686676126226 A 46.4916874524827 46.4916874524827 0 0 0 5.987513214418485,-24.277555179777966 Z M 85.16350367912686,-43.66354916211782 L 84.42641559468981,-42.98775247983761 A 45.4916874524827 45.4916874524827 0 0 1 93.01265715172173,-29.437628835144768 L 90.23516363514132,-28.30381678486755 L 96.12113418846529,-23.1457793048367 L 96.71598184049559,-30.949378235514395 L 93.93848832391518,-29.815566185237177 A 46.4916874524827 46.4916874524827 0 0 0 85.16350367912686,-43.66354916211782"/><text text-anchor="middle" pointer-events="none" font-size="8px" fill="#000000" x="48.00479922730333" y="-55.145403732484326" font-family="sans-serif">CHEAPEST_FLIGHT</text></g><g class="relationship" transform="translate(181.4847263905267 61.41807838617447) rotate(186.0792313098736)"><path class="outline" fill="#A5ABB6" stroke="none" d="M 24.018736134675446,-6.953439040707552 L 24.277555179777966,-5.987513214418485 A 102.80853946199849 102.80853946199849 0 0 1 25.065886459503286,-6.195399284953552 L 24.814735369648947,-7.163347181312119 A 103.80853946199849 103.80853946199849 0 0 0 24.018736134675446,-6.953439040707552 Z M 73.70355912523847,-7.951968993813622 L 73.48375836460959,-6.976424209794473 A 102.80853946199849 102.80853946199849 0 0 1 74.27838453633865,-6.794072702756365 L 73.59579470089211,-3.872759450716271 L 81.20854709700663,-5.68824862872113 L 75.18850431693404,-10.689157038809824 L 74.50591448148751,-7.767843786769729 A 103.80853946199849 103.80853946199849 0 0 0 73.70355912523847,-7.951968993813622"/><text text-anchor="middle" pointer-events="none" font-size="8px" fill="#000000" x="49.22011794890015" y="-6.977191084941865" transform="rotate(180 49.22011794890015 -9.977191084941865)" font-family="sans-serif">BUSINES…</text></g><g class="relationship" transform="translate(123.47755676627554 149.64660954110252) rotate(244.71761581303434)"><path class="outline" fill="#A5ABB6" stroke="none" d="M 17.324116139070416,18.03122292025696 L 18.031222920256962,17.324116139070412 A 49.67117865826865 49.67117865826865 0 0 0 18.510249422800207,17.79669670858153 L 17.81278659441452,18.513317670471586 A 50.67117865826865 50.67117865826865 0 0 1 17.324116139070416,18.03122292025696 Z M 85.24125155641937,21.418375135969093 L 84.60800792114158,20.64442261909214 A 49.67117865826865 49.67117865826865 0 0 0 85.12590483707791,20.21479304692341 L 83.19489440879758,17.918883918522937 L 90.80486120805907,16.091753569002726 L 87.70058540811834,23.27600521812404 L 85.76957497983801,20.980096089723567 A 50.67117865826865 50.67117865826865 0 0 1 85.24125155641937,21.418375135969093"/><text text-anchor="middle" pointer-events="none" font-size="8px" fill="#000000" x="50.9945011654533" y="35.325968590157544" transform="rotate(180 50.9945011654533 32.325968590157544)" font-family="sans-serif">CHEAPEST_FLI…</text></g><g class="relationship" transform="translate(123.47755676627554 149.64660954110252) rotate(303.3235189218229)"><path class="outline" fill="#A5ABB6" stroke="none" d="M 17.324116139070416,18.03122292025696 L 18.031222920256962,17.324116139070412 A 46.49091852375283 46.49091852375283 0 0 0 19.151539004363382,18.407491081812957 L 18.468529748450166,19.13790079994167 A 47.49091852375283 47.49091852375283 0 0 1 17.324116139070416,18.03122292025696 Z M 80.1118816573645,21.898182931472483 L 79.49688797239791,21.109650898228928 A 46.49091852375283 46.49091852375283 0 0 0 80.70954951307063,20.13074263764305 L 78.7863169471761,17.828314246252173 L 86.40242118729842,16.026938049120982 L 83.27385960092998,23.200647159497553 L 81.35062703503546,20.898218768106677 A 47.49091852375283 47.49091852375283 0 0 1 80.1118816573645,21.898182931472483"/><text text-anchor="middle" pointer-events="none" font-size="8px" fill="#000000" x="48.80320139673719" y="34.39395106479833" font-family="sans-serif">CHEAPEST_F…</text></g><g class="relationship" transform="translate(123.47755676627554 149.64660954110252) rotate(244.71761581303434)"><path class="outline" fill="#A5ABB6" stroke="none" d="M 24.018736134675446,6.953439040707552 L 24.277555179777966,5.987513214418485 A 111.57020917000528 111.57020917000528 0 0 0 25.706110238113393,6.3601807411620115 L 25.460095283537928,7.329446773851302 A 112.57020917000528 112.57020917000528 0 0 1 24.018736134675446,6.953439040707552 Z M 77.44762709559376,8.136545459511112 L 77.23181887159146,7.160109690782335 A 111.57020917000528 111.57020917000528 0 0 0 78.67125389974805,6.831967282824233 L 77.9851244057587,3.9114833644507887 L 85.60007129161765,5.717745783244641 L 79.58609322506719,10.725945840655493 L 78.89996373107783,7.805461922282048 A 112.57020917000528 112.57020917000528 0 0 1 77.44762709559376,8.136545459511112"/><text text-anchor="middle" pointer-events="none" font-size="8px" fill="#000000" x="51.414386514345125" y="13.27567270663232" transform="rotate(180 51.414386514345125 10.27567270663232)" font-family="sans-serif">CHEAPES…</text></g><g class="relationship" transform="translate(123.47755676627554 149.64660954110252) rotate(303.3235189218229)"><path class="outline" fill="#A5ABB6" stroke="none" d="M 24.018736134675446,6.953439040707552 L 24.277555179777966,5.987513214418485 A 102.8815769012223 102.8815769012223 0 0 0 26.155719212015715,6.47183728152973 L 25.91515575833012,7.442470695724225 A 103.8815769012223 103.8815769012223 0 0 1 24.018736134675446,6.953439040707552 Z M 72.63129469295852,8.195800279024482 L 72.42215243049918,7.217915053625603 A 102.8815769012223 102.8815769012223 0 0 0 74.31495598076815,6.794400409175447 L 73.63233553460458,3.8730943097604156 L 81.24510695376381,5.688503718029649 L 75.22511657565289,10.68947520839549 L 74.54249612948932,7.768169108980457 A 103.8815769012223 103.8815769012223 0 0 1 72.63129469295852,8.195800279024482"/><text text-anchor="middle" pointer-events="none" font-size="8px" fill="#000000" x="49.23838498866796" y="12.979679009337644" font-family="sans-serif">CHEAPE…</text></g><g class="relationship" transform="translate(123.47755676627554 149.64660954110252) rotate(186.1107712980098)"><path class="outline" fill="#A5ABB6" stroke="none" d="M 11.542385173217793,22.18159923254142 L 12.420064162785048,21.70235024582136 A 43.83717865767316 43.83717865767316 0 0 0 14.457825177674358,25.066116124616045 L 13.626630954629192,25.622098285819398 A 44.83717865767316 44.83717865767316 0 0 1 11.542385173217793,22.18159923254142 Z M 85.12383053678786,29.654817205811646 L 84.36042845108594,29.008893637929216 A 43.83717865767316 43.83717865767316 0 0 0 86.7635201937573,25.895609051282683 L 84.30885820640688,24.17089616855208 L 91.1969605846871,20.455516561253475 L 90.03640284355785,28.195226228256818 L 87.58174085620743,26.470513345526214 A 44.83717865767316 44.83717865767316 0 0 1 85.12383053678786,29.654817205811646"/><text text-anchor="middle" pointer-events="none" font-size="8px" fill="#000000" x="48.3982148000997" y="47.960246207650535" transform="rotate(180 48.3982148000997 44.960246207650535)" font-family="sans-serif">CHEAPEST_FLIGHT</text></g><g class="relationship" transform="translate(123.47755676627554 149.64660954110252) rotate(186.1107712980098)"><path class="outline" fill="#A5ABB6" stroke="none" d="M 16.44653366033987,18.835114296422724 L 17.186485024722753,18.16245392272147 A 45.555088388709066 45.555088388709066 0 0 0 17.839176219900516,18.865424094744647 L 17.11355237014363,19.553515679247752 A 46.555088388709066 46.555088388709066 0 0 1 16.44653366033987,18.835114296422724 Z M 81.52519222152125,22.57886787125416 L 80.86725861105862,21.825791936023457 A 45.555088388709066 45.555088388709066 0 0 0 81.58296664783309,21.187094147461963 L 79.56203334044157,18.969927359176612 L 87.0931780383975,16.84111089492932 L 84.27754439102178,24.143316531842434 L 82.25661108363026,21.926149743557083 A 46.555088388709066 46.555088388709066 0 0 1 81.52519222152125,22.57886787125416"/><text text-anchor="middle" pointer-events="none" font-size="8px" fill="#000000" x="48.73425416681944" y="36.523722602927016" transform="rotate(180 48.73425416681944 33.523722602927016)" font-family="sans-serif">BUSINESS_FLI…</text></g><g class="relationship" transform="translate(123.47755676627554 149.64660954110252) rotate(244.71761581303434)"><path class="outline" fill="#A5ABB6" stroke="none" d="M 24.018736134675446,-6.953439040707552 L 24.277555179777966,-5.987513214418485 A 111.57020917000528 111.57020917000528 0 0 1 24.635110527482553,-6.082684707631401 L 24.379496238832175,-7.049463552785639 A 112.57020917000528 112.57020917000528 0 0 0 24.018736134675446,-6.953439040707552 Z M 78.53639667249108,-7.890241363077436 L 78.31091653275791,-6.91599359860173 A 111.57020917000528 111.57020917000528 0 0 1 78.67125389974805,-6.831967282824233 L 77.9851244057587,-3.9114833644507887 L 85.60007129161765,-5.717745783244641 L 79.58609322506719,-10.725945840655493 L 78.89996373107783,-7.805461922282048 A 112.57020917000528 112.57020917000528 0 0 0 78.53639667249108,-7.890241363077436"/><text text-anchor="middle" pointer-events="none" font-size="8px" fill="#000000" x="51.414386514345104" y="-7.275672706632321" transform="rotate(180 51.414386514345104 -10.27567270663232)" font-family="sans-serif">BUSINESS…</text></g><g class="relationship" transform="translate(123.47755676627554 149.64660954110252) rotate(303.3235189218229)"><path class="outline" fill="#A5ABB6" stroke="none" d="M 24.018736134675446,-6.953439040707552 L 24.277555179777966,-5.987513214418485 A 102.8815769012223 102.8815769012223 0 0 1 25.08369470177851,-6.20002072469471 L 24.832711262877616,-7.168012105543468 A 103.8815769012223 103.8815769012223 0 0 0 24.018736134675446,-6.953439040707552 Z M 73.72202574473012,-7.956385625837754 L 73.5023837277974,-6.98080508872269 A 102.8815769012223 102.8815769012223 0 0 1 74.31495598076815,-6.794400409175447 L 73.63233553460458,-3.8730943097604156 L 81.24510695376381,-5.688503718029649 L 75.22511657565289,-10.68947520839549 L 74.54249612948932,-7.768169108980457 A 103.8815769012223 103.8815769012223 0 0 0 73.72202574473012,-7.956385625837754"/><text text-anchor="middle" pointer-events="none" font-size="8px" fill="#000000" x="49.23838498866794" y="-6.979679009337644" font-family="sans-serif">BUSINES…</text></g><g class="relationship" transform="translate(123.47755676627554 149.64660954110252) rotate(244.71761581303434)"><path class="outline" fill="#A5ABB6" stroke="none" d="M 17.324116139070416,-18.03122292025696 L 18.031222920256962,-17.324116139070412 A 49.67117865826865 49.67117865826865 0 0 1 19.46739615561342,-18.70382755921468 L 18.789202987394205,-19.438711241562288 A 50.67117865826865 50.67117865826865 0 0 0 17.324116139070416,-18.03122292025696 Z M 84.18886254037668,-22.25636057307895 L 83.5763878914124,-21.465870342667415 A 49.67117865826865 49.67117865826865 0 0 1 85.12590483707791,-20.21479304692341 L 83.19489440879758,-17.918883918522937 L 90.80486120805907,-16.091753569002726 L 87.70058540811834,-23.27600521812404 L 85.76957497983801,-20.980096089723567 A 50.67117865826865 50.67117865826865 0 0 0 84.18886254037668,-22.25636057307895"/><text text-anchor="middle" pointer-events="none" font-size="8px" fill="#000000" x="50.99450116545329" y="-29.325968590157544" transform="rotate(180 50.99450116545329 -32.325968590157544)" font-family="sans-serif">BUSINESS_FLI…</text></g><g class="relationship" transform="translate(123.47755676627554 149.64660954110252) rotate(303.3235189218229)"><path class="outline" fill="#A5ABB6" stroke="none" d="M 17.324116139070416,-18.03122292025696 L 18.031222920256962,-17.324116139070412 A 46.49091852375283 46.49091852375283 0 0 1 18.512295182979436,-17.79824929843499 L 17.815536062755463,-18.515554483404898 A 47.49091852375283 47.49091852375283 0 0 0 17.324116139070416,-18.03122292025696 Z M 80.81788559904442,-21.336690166072543 L 80.18802583096918,-20.559981293611166 A 46.49091852375283 46.49091852375283 0 0 1 80.70954951307063,-20.13074263764305 L 78.7863169471761,-17.828314246252173 L 86.40242118729842,-16.026938049120982 L 83.27385960092998,-23.200647159497553 L 81.35062703503546,-20.898218768106677 A 47.49091852375283 47.49091852375283 0 0 0 80.81788559904442,-21.336690166072543"/><text text-anchor="middle" pointer-events="none" font-size="8px" fill="#000000" x="48.80320139673719" y="-28.39395106479833" font-family="sans-serif">BUSINESS_FL…</text></g><g class="relationship" transform="translate(76.52548930619996 50.23965064740861) rotate(483.3460341263157)"><path class="outline" fill="#A5ABB6" stroke="none" d="M 24.018736134675446,-6.953439040707552 L 24.277555179777966,-5.987513214418485 A 102.79353065177996 102.79353065177996 0 0 1 25.06222712081297,-6.194449250304089 L 24.811041551631156,-7.162388199739851 A 103.79353065177996 103.79353065177996 0 0 0 24.018736134675446,-6.953439040707552 Z M 73.6997643227232,-7.951061051913342 L 73.47993091351502,-6.975523624545275 A 102.79353065177996 102.79353065177996 0 0 1 74.2708693995356,-6.7940053353092935 L 73.58828585681314,-3.8726906129275274 L 81.20103434221346,-5.688196189353847 L 75.1809807898322,-10.689091631818314 L 74.49839724710975,-7.767776909436549 A 103.79353065177996 103.79353065177996 0 0 0 73.6997643227232,-7.951061051913342"/><text text-anchor="middle" pointer-events="none" font-size="8px" fill="#000000" x="49.216364220989426" y="-6.976679830044148" transform="rotate(180 49.216364220989426 -9.976679830044148)" font-family="sans-serif">BUSINES…</text></g><g class="relationship" transform="translate(18.507840442941713 138.40862350263333) rotate(366.1107712980098)"><path class="outline" fill="#A5ABB6" stroke="none" d="M 20.42347816666382,-14.426764695378036 L 20.983985768904716,-13.598615416666664 A 53.36421654950374 53.36421654950374 0 0 1 22.302769389343723,-14.46306244519269 L 21.766974669736747,-15.30741072549015 A 54.36421654950374 54.36421654950374 0 0 0 20.42347816666382,-14.426764695378036 Z M 76.72051857279962,-17.243477094894686 L 76.24547293838395,-16.36351593369345 A 53.36421654950374 53.36421654950374 0 0 1 77.62182190959933,-15.59402102656275 L 76.11931018141111,-12.99739658189293 L 83.93103090186028,-12.5209310682352 L 79.62517088051696,-19.056186952789172 L 78.12265915232874,-16.459562508119355 A 54.36421654950374 54.36421654950374 0 0 0 76.72051857279962,-17.243477094894686"/><text text-anchor="middle" pointer-events="none" font-size="8px" fill="#000000" x="48.99852314669547" y="-20.235896913742017" font-family="sans-serif">CHEAPEST…</text></g><g class="relationship" transform="translate(18.507840442941713 138.40862350263333) rotate(366.1107712980098)"><path class="outline" fill="#A5ABB6" stroke="none" d="M 23.249011035194496,-9.205079352477338 L 23.59847521479359,-8.268129627477578 A 78.10974975761927 78.10974975761927 0 0 1 23.81431054219104,-8.348269895766862 L 23.46760959417401,-9.286245616478269 A 79.10974975761927 79.10974975761927 0 0 0 23.249011035194496,-9.205079352477338 Z M 75.0601980913295,-10.411817178859252 L 74.75473431053337,-9.459613482887775 A 78.10974975761927 78.10974975761927 0 0 1 74.97385937973094,-9.388962543733363 L 74.04905199184715,-6.535064981571125 L 81.78708825609012,-7.7067282323649 L 76.20693589690931,-13.194159293283015 L 75.28212850902553,-10.340261731120776 A 79.10974975761927 79.10974975761927 0 0 0 75.0601980913295,-10.411817178859252"/><text text-anchor="middle" pointer-events="none" font-size="8px" fill="#000000" x="49.18045038921744" y="-10.674269908274297" font-family="sans-serif">CHEAPES…</text></g><g class="relationship" transform="translate(18.507840442941713 138.40862350263333) rotate(366.1107712980098)"><path class="outline" fill="#A5ABB6" stroke="none" d="M 24.763837585503556,-3.464440508769274 L 24.88255664816086,-2.4715126240959857 A 219.10953137709413 219.10953137709413 0 0 1 25.935267876509034,-2.5947978432251375 L 25.82135331150061,-3.5882883926914815 A 220.10953137709413 220.10953137709413 0 0 0 24.763837585503556,-3.464440508769274 Z M 72.73601896537195,-3.934783540609317 L 72.63679116730162,-2.939718796941804 A 219.10953137709413 219.10953137709413 0 0 1 73.6912085386229,-2.8319960853067756 L 73.37908829132714,0.15172322978102892 L 80.70524031504374,-2.6010020607979767 L 74.10736886835058,-6.8102885054238484 L 73.79524862105481,-3.8265691903360435 A 220.10953137709413 220.10953137709413 0 0 0 72.73601896537195,-3.934783540609317"/><text text-anchor="middle" pointer-events="none" font-size="8px" fill="#000000" x="49.273120646132284" y="-1.5150911382322079" font-family="sans-serif">CHEAPE…</text></g><g class="relationship" transform="translate(18.507840442941713 138.40862350263333) rotate(366.1107712980098)"><path class="outline" fill="#A5ABB6" stroke="none" d="M 24.763837585503556,3.464440508769274 L 24.88255664816086,2.4715126240959857 A 219.10953137709413 219.10953137709413 0 0 0 25.935267876509055,2.5947978432251375 L 25.82135331150063,3.5882883926914815 A 220.10953137709413 220.10953137709413 0 0 1 24.763837585503556,3.464440508769274 Z M 72.73601896537205,3.9347835406092884 L 72.63679116730172,2.9397187969417757 A 219.10953137709413 219.10953137709413 0 0 0 73.6912085386229,2.8319960853067756 L 73.37908829132714,-0.15172322978102892 L 80.70524031504374,2.6010020607979767 L 74.10736886835058,6.8102885054238484 L 73.79524862105481,3.8265691903360435 A 220.10953137709413 220.10953137709413 0 0 1 72.73601896537205,3.9347835406092884"/><text text-anchor="middle" pointer-events="none" font-size="8px" fill="#000000" x="49.27312064613234" y="7.515091138232208" font-family="sans-serif">CHEAPE…</text></g><g class="relationship" transform="translate(18.507840442941713 138.40862350263333) rotate(366.1107712980098)"><path class="outline" fill="#A5ABB6" stroke="none" d="M 23.249011035194496,9.205079352477338 L 23.59847521479359,8.268129627477578 A 78.10974975761927 78.10974975761927 0 0 0 25.27032921400015,8.870126883277052 L 24.942268943700395,9.814783677594889 A 79.10974975761927 79.10974975761927 0 0 1 23.249011035194496,9.205079352477338 Z M 73.56389106741,10.875539045244224 L 73.2773416053736,9.91747359559757 A 78.10974975761927 78.10974975761927 0 0 0 74.97385937973094,9.388962543733363 L 74.04905199184715,6.535064981571125 L 81.78708825609012,7.7067282323649 L 76.20693589690931,13.194159293283015 L 75.28212850902553,10.340261731120776 A 79.10974975761927 79.10974975761927 0 0 1 73.56389106741,10.875539045244224"/><text text-anchor="middle" pointer-events="none" font-size="8px" fill="#000000" x="49.180450389217455" y="16.674269908274297" font-family="sans-serif">BUSINES…</text></g><g class="relationship" transform="translate(18.507840442941713 138.40862350263333) rotate(366.1107712980098)"><path class="outline" fill="#A5ABB6" stroke="none" d="M 20.42347816666382,14.426764695378036 L 20.983985768904716,13.598615416666664 A 53.36421654950374 53.36421654950374 0 0 0 21.560078106324625,13.983098585656286 L 21.010365984176378,14.818452751721956 A 54.36421654950374 54.36421654950374 0 0 1 20.42347816666382,14.426764695378036 Z M 77.50966156140721,16.80897744390701 L 77.02010007375767,15.937008665904969 A 53.36421654950374 53.36421654950374 0 0 0 77.62182190959933,15.59402102656275 L 76.11931018141111,12.99739658189293 L 83.93103090186028,12.5209310682352 L 79.62517088051696,19.056186952789172 L 78.12265915232874,16.459562508119355 A 54.36421654950374 54.36421654950374 0 0 1 77.50966156140721,16.80897744390701"/><text text-anchor="middle" pointer-events="none" font-size="8px" fill="#000000" x="48.99852314669548" y="26.235896913742017" font-family="sans-serif">BUSINESS_…</text></g><g class="relationship" transform="translate(18.507840442941713 138.40862350263333) rotate(366.1107712980098)"><path class="outline" fill="#A5ABB6" stroke="none" d="M 16.44653366033987,18.835114296422724 L 17.186485024722753,18.16245392272147 A 45.555088388709066 45.555088388709066 0 0 0 17.839176219900516,18.865424094744647 L 17.11355237014363,19.553515679247752 A 46.555088388709066 46.555088388709066 0 0 1 16.44653366033987,18.835114296422724 Z M 81.52519222152125,22.57886787125416 L 80.86725861105862,21.825791936023457 A 45.555088388709066 45.555088388709066 0 0 0 81.58296664783309,21.187094147461963 L 79.56203334044157,18.969927359176612 L 87.0931780383975,16.84111089492932 L 84.27754439102178,24.143316531842434 L 82.25661108363026,21.926149743557083 A 46.555088388709066 46.555088388709066 0 0 1 81.52519222152125,22.57886787125416"/><text text-anchor="middle" pointer-events="none" font-size="8px" fill="#000000" x="48.73425416681944" y="36.523722602927016" font-family="sans-serif">BUSINESS_FLI…</text></g><g class="relationship" transform="translate(18.507840442941713 138.40862350263333) rotate(366.1107712980098)"><path class="outline" fill="#A5ABB6" stroke="none" d="M 11.542385173217793,22.18159923254142 L 12.420064162785048,21.70235024582136 A 43.83717865767316 43.83717865767316 0 0 0 15.206391676262726,26.149643761611088 L 14.392273517907633,26.73034301616245 A 44.83717865767316 44.83717865767316 0 0 1 11.542385173217793,22.18159923254142 Z M 84.23842203347108,30.669936262519318 L 83.49476714261559,30.001372575719994 A 43.83717865767316 43.83717865767316 0 0 0 86.7635201937573,25.895609051282683 L 84.30885820640688,24.17089616855208 L 91.1969605846871,20.455516561253475 L 90.03640284355785,28.195226228256818 L 87.58174085620743,26.470513345526214 A 44.83717865767316 44.83717865767316 0 0 1 84.23842203347108,30.669936262519318"/><text text-anchor="middle" pointer-events="none" font-size="8px" fill="#000000" x="48.3982148000997" y="47.960246207650535" font-family="sans-serif">BUSINESS_FLIGHT</text></g><g class="relationship" transform="translate(18.507840442941713 138.40862350263333) rotate(366.1107712980098)"><path class="outline" fill="#A5ABB6" stroke="none" d="M 5.987513214418485,24.277555179777966 L 6.953439040707552,24.018736134675446 A 45.4916874524827 45.4916874524827 0 0 0 14.549187882288912,39.60285629182147 L 13.750232095295821,40.20424605763915 A 46.4916874524827 46.4916874524827 0 0 1 5.987513214418485,24.277555179777966 Z M 84.23929065376892,44.64273217533466 L 83.52208167194141,43.94587402880415 A 45.4916874524827 45.4916874524827 0 0 0 93.01265715172173,29.437628835144768 L 90.23516363514132,28.30381678486755 L 96.12113418846529,23.1457793048367 L 96.71598184049559,30.949378235514395 L 93.93848832391518,29.815566185237177 A 46.4916874524827 46.4916874524827 0 0 1 84.23929065376892,44.64273217533466"/><text text-anchor="middle" pointer-events="none" font-size="8px" fill="#000000" x="48.004799227303344" y="61.145403732484326" font-family="sans-serif">BUSINESS_FLIGHT</text></g></g><g class="layer nodes"><g class="node" transform="translate(181.4847263905267,61.41807838617447)"><circle class="outline" cx="0" cy="0" r="25" fill="#ECB5C9" stroke="#da7298" stroke-width="2px"/><text text-anchor="middle" pointer-events="none" font-family="sans-serif" dy="1.5625" font-size="25" fill="#2A2C34"/><text text-anchor="middle" pointer-events="none" x="0" y="5" font-size="10px" fill="#2A2C34" font-family="sans-serif"> LAX</text></g><g class="node" transform="translate(123.47755676627554,149.64660954110252)"><circle class="outline" cx="0" cy="0" r="25" fill="#ECB5C9" stroke="#da7298" stroke-width="2px"/><text text-anchor="middle" pointer-events="none" font-family="sans-serif" dy="1.5625" font-size="25" fill="#2A2C34"/><text text-anchor="middle" pointer-events="none" x="0" y="5" font-size="10px" fill="#2A2C34" font-family="sans-serif"> ORD</text></g><g class="node" transform="translate(76.52548930619996,50.23965064740861)"><circle class="outline" cx="0" cy="0" r="25" fill="#ECB5C9" stroke="#da7298" stroke-width="2px"/><text text-anchor="middle" pointer-events="none" font-family="sans-serif" dy="1.5625" font-size="25" fill="#2A2C34"/><text text-anchor="middle" pointer-events="none" x="0" y="5" font-size="10px" fill="#2A2C34" font-family="sans-serif"> LAS</text></g><g class="node" transform="translate(18.507840442941713,138.40862350263333)"><circle class="outline" cx="0" cy="0" r="25" fill="#ECB5C9" stroke="#da7298" stroke-width="2px"/><text text-anchor="middle" pointer-events="none" font-family="sans-serif" dy="1.5625" font-size="25" fill="#2A2C34"/><text text-anchor="middle" pointer-events="none" x="0" y="5" font-size="10px" fill="#2A2C34" font-family="sans-serif"> DEN</text></g></g></svg>