<svg xmlns="http://www.w3.org/2000/svg" width="386.89111328125" height="354.5216369628906" viewBox="-73.69142150878906 -75.97216796875 386.89111328125 354.5216369628906"><title>Neo4j Graph Visualization</title><desc>Created using Neo4j (http://www.neo4j.com/)</desc><g class="layer relationships"><g class="relationship" transform="translate(26.913282172462097 -46.78784598998859) rotate(385.5985219042377)"><path class="outline" fill="#A5ABB6" stroke="none" d="M 24.018736134675446,-6.953439040707552 L 24.277555179777966,-5.987513214418485 A 177.8454889136753 177.8454889136753 0 0 1 57.19856661894852,-11.563676401877075 L 57.12485775932363,-12.560956204145612 A 178.8454889136753 178.8454889136753 0 0 0 24.018736134675446,-6.953439040707552 Z M 79.18267445945563,-12.827093890003766 L 79.13304883167402,-11.828326000518302 A 177.8454889136753 177.8454889136753 0 0 1 112.17901504608362,-7.048084685765971 L 111.4726997972858,-4.132416877301557 L 119.09995914063356,-5.88596040664847 L 113.12076871114738,-10.935641763718523 L 112.41445346234956,-8.019973955254109 A 178.8454889136753 178.8454889136753 0 0 0 79.18267445945563,-12.827093890003766"/><text text-anchor="middle" pointer-events="none" font-size="8px" fill="#000000" x="68.15569119781782" y="-9.534471365138586" font-family="sans-serif">road</text></g><g class="relationship" transform="translate(156.23513147678943 15.16870042896283) rotate(377.965603206637)"><path class="outline" fill="#A5ABB6" stroke="none" d="M 21.40063509461097,-12.933012701892217 L 21.90063509461097,-12.06698729810778 A 87.75642392322548 87.75642392322548 0 0 1 40.84213171327559,-20.20656913072112 L 40.557973423453255,-21.165346511725303 A 88.75642392322548 88.75642392322548 0 0 0 21.40063509461097,-12.933012701892217 Z M 86.73395039076729,-22.314934975962046 L 86.49785363958824,-21.343205423008797 A 87.75642392322548 87.75642392322548 0 0 1 105.82091683360673,-14.156250896600508 L 104.45205739333097,-11.486752098554717 L 112.27789060242621,-11.407162002298023 L 107.64606275397442,-17.715582627328228 L 106.27720331369866,-15.046083829282438 A 88.75642392322548 88.75642392322548 0 0 0 86.73395039076729,-22.314934975962046"/><text text-anchor="middle" pointer-events="none" font-size="8px" fill="#000000" x="63.58231227728135" y="-21.296780734929328" font-family="sans-serif">twowheeler</text></g><g class="relationship" transform="translate(284.1997192292896 56.66199974368689) rotate(535.6223452882447)"><path class="outline" fill="#A5ABB6" stroke="none" d="M 21.40063509461097,12.933012701892217 L 21.90063509461097,12.06698729810778 A 44.33223756355932 44.33223756355932 0 0 0 23.03999371383567,12.70262840069958 L 22.565694167542553,13.582991928105244 A 45.33223756355932 45.33223756355932 0 0 1 21.40063509461097,12.933012701892217 Z M 62.681346710867075,15.008253925563416 L 62.270720767058826,14.096450035315307 A 44.33223756355932 44.33223756355932 0 0 0 63.452316814180826,13.543269724809443 L 62.14047937917675,10.84529223340557 L 69.9662371999572,10.931978625033928 L 65.20143339418625,17.140573046681276 L 63.88959595918218,14.442595555277402 A 45.33223756355932 45.33223756355932 0 0 1 62.681346710867075,15.008253925563416"/><text text-anchor="middle" pointer-events="none" font-size="8px" fill="#000000" x="42.47492152140076" y="21.47811187663627" transform="rotate(180 42.47492152140076 18.47811187663627)" font-family="sans-serif">twowhe…</text></g><g class="relationship" transform="translate(192.02004839945715 63.71867712718005) rotate(463.54246527908936)"><path class="outline" fill="#A5ABB6" stroke="none" d="M 25 0.5 L 50.38554609839839 0.5 L 50.38554609839839 -0.5 L 25 -0.5 Z M 69.7214835983984 0.5 L 95.10702969679679 0.5 L 95.10702969679679 3.5 L 102.10702969679679 0 L 95.10702969679679 -3.5 L 95.10702969679679 -0.5 L 69.7214835983984 -0.5 Z"/><text text-anchor="middle" pointer-events="none" font-size="8px" fill="#000000" x="60.05351484839839" y="3" transform="rotate(180 60.05351484839839 0)" font-family="sans-serif">trek</text></g><g class="relationship" transform="translate(26.913282172462097 -46.78784598998859) rotate(385.5985219042377)"><path class="outline" fill="#A5ABB6" stroke="none" d="M 24.018736134675446,6.953439040707552 L 24.277555179777966,5.987513214418485 A 177.8454889136753 177.8454889136753 0 0 0 58.529433649335125,11.657022893114373 L 58.463208066562046,12.654827569484638 A 178.8454889136753 178.8454889136753 0 0 1 24.018736134675446,6.953439040707552 Z M 77.84244888447198,12.888647007513413 L 77.8003170189492,11.88953494877947 A 177.8454889136753 177.8454889136753 0 0 0 112.17901504608362,7.048084685765971 L 111.4726997972858,4.132416877301557 L 119.09995914063356,5.88596040664847 L 113.12076871114738,10.935641763718523 L 112.41445346234956,8.019973955254109 A 178.8454889136753 178.8454889136753 0 0 1 77.84244888447198,12.888647007513413"/><text text-anchor="middle" pointer-events="none" font-size="8px" fill="#000000" x="68.15569119781789" y="15.534471365138586" font-family="sans-serif">trek</text></g><g class="relationship" transform="translate(156.23513147678943 15.16870042896283) rotate(377.965603206637)"><path class="outline" fill="#A5ABB6" stroke="none" d="M 25 0.5 L 52.755997584737216 0.5 L 52.755997584737216 -0.5 L 25 -0.5 Z M 74.76771633473722 0.5 L 102.52371391947443 0.5 L 102.52371391947443 3.5 L 109.52371391947443 0 L 102.52371391947443 -3.5 L 102.52371391947443 -0.5 L 74.76771633473722 -0.5 Z"/><text text-anchor="middle" pointer-events="none" font-size="8px" fill="#000000" x="63.761856959737216" y="3" font-family="sans-serif">road</text></g><g class="relationship" transform="translate(156.23513147678943 15.16870042896283) rotate(377.965603206637)"><path class="outline" fill="#A5ABB6" stroke="none" d="M 21.40063509461097,12.933012701892217 L 21.90063509461097,12.06698729810778 A 87.75642392322548 87.75642392322548 0 0 0 54.01683746992265,23.032314481957243 L 53.882807286598506,24.023291731927245 A 88.75642392322548 88.75642392322548 0 0 1 21.40063509461097,12.933012701892217 Z M 73.28341020744253,24.50628550448623 L 73.1988578694877,23.509866465052326 A 87.75642392322548 87.75642392322548 0 0 0 105.82091683360673,14.156250896600508 L 104.45205739333097,11.486752098554717 L 112.27789060242621,11.407162002298023 L 107.64606275397442,17.715582627328228 L 106.27720331369866,15.046083829282438 A 88.75642392322548 88.75642392322548 0 0 1 73.28341020744253,24.50628550448623"/><text text-anchor="middle" pointer-events="none" font-size="8px" fill="#000000" x="63.58231227728135" y="27.296780734929328" font-family="sans-serif">trek</text></g><g class="relationship" transform="translate(284.1997192292896 56.66199974368689) rotate(535.6223452882447)"><path class="outline" fill="#A5ABB6" stroke="none" d="M 25 0.5 L 31.7188321058281 0.5 L 31.7188321058281 -0.5 L 25 -0.5 Z M 53.7305508558281 0.5 L 60.4493829616562 0.5 L 60.4493829616562 3.5 L 67.4493829616562 0 L 60.4493829616562 -3.5 L 60.4493829616562 -0.5 L 53.7305508558281 -0.5 Z"/><text text-anchor="middle" pointer-events="none" font-size="8px" fill="#000000" x="42.7246914808281" y="3" transform="rotate(180 42.7246914808281 0)" font-family="sans-serif">road</text></g><g class="relationship" transform="translate(284.1997192292896 56.66199974368689) rotate(535.6223452882447)"><path class="outline" fill="#A5ABB6" stroke="none" d="M 21.40063509461097,-12.933012701892217 L 21.90063509461097,-12.06698729810778 A 44.33223756355932 44.33223756355932 0 0 1 33.04889547971995,-16.615429831972946 L 32.80036621518928,-17.58405421978891 A 45.33223756355932 45.33223756355932 0 0 0 21.40063509461097,-12.933012701892217 Z M 52.18853283123261,-18.27289299782923 L 52.00937161194678,-17.28907326967574 A 44.33223756355932 44.33223756355932 0 0 1 63.452316814180826,-13.543269724809443 L 62.14047937917675,-10.84529223340557 L 69.9662371999572,-10.931978625033928 L 65.20143339418625,-17.140573046681276 L 63.88959595918218,-14.442595555277402 A 45.33223756355932 45.33223756355932 0 0 0 52.18853283123261,-18.27289299782923"/><text text-anchor="middle" pointer-events="none" font-size="8px" fill="#000000" x="42.47492152140076" y="-15.47811187663627" transform="rotate(180 42.47492152140076 -18.47811187663627)" font-family="sans-serif">trek</text></g><g class="relationship" transform="translate(26.913282172462097 -46.78784598998859) rotate(359.8723672624949)"><path class="outline" fill="#A5ABB6" stroke="none" d="M 21.40063509461097,12.933012701892217 L 21.90063509461097,12.06698729810778 A 34.11940527426284 34.11940527426284 0 0 0 28.27104441134584,14.92045664186002 L 27.95775368325511,15.870113906188777 A 35.11940527426284 35.11940527426284 0 0 1 21.40063509461097,12.933012701892217 Z M 47.303967931860136,16.632590486295847 L 47.06638901687115,15.66122224553817 A 34.11940527426284 34.11940527426284 0 0 0 53.64161254354024,13.317968581759192 L 52.35073938554247,10.60989796045685 L 60.175589519578665,10.757276316648113 L 55.362776754203935,16.928729410162315 L 54.07190359620616,14.220658788859975 A 35.11940527426284 35.11940527426284 0 0 1 47.303967931860136,16.632590486295847"/><text text-anchor="middle" pointer-events="none" font-size="8px" fill="#000000" x="37.596969780088855" y="20.111264612731397" font-family="sans-serif">trek</text></g><g class="relationship" transform="translate(109.65592157418021 -46.972164750170535) rotate(413.3473739960439)"><path class="outline" fill="#A5ABB6" stroke="none" d="M 25 0.5 L 55.81810205999564 0.5 L 55.81810205999564 -0.5 L 25 -0.5 Z M 75.15403955999564 0.5 L 105.97214161999128 0.5 L 105.97214161999128 3.5 L 112.97214161999128 0 L 105.97214161999128 -3.5 L 105.97214161999128 -0.5 L 75.15403955999564 -0.5 Z"/><text text-anchor="middle" pointer-events="none" font-size="8px" fill="#000000" x="65.48607080999564" y="3" font-family="sans-serif">trek</text></g><g class="relationship" transform="translate(26.913282172462097 -46.78784598998859) rotate(359.8723672624949)"><path class="outline" fill="#A5ABB6" stroke="none" d="M 25 0.5 L 26.865562973549096 0.5 L 26.865562973549096 -0.5 L 25 -0.5 Z M 48.877281723549096 0.5 L 50.74284469709819 0.5 L 50.74284469709819 3.5 L 57.74284469709819 0 L 50.74284469709819 -3.5 L 50.74284469709819 -0.5 L 48.877281723549096 -0.5 Z"/><text text-anchor="middle" pointer-events="none" font-size="8px" fill="#000000" x="37.871422348549096" y="3" font-family="sans-serif">road</text></g><g class="relationship" transform="translate(26.913282172462097 -46.78784598998859) rotate(359.8723672624949)"><path class="outline" fill="#A5ABB6" stroke="none" d="M 21.40063509461097,-12.933012701892217 L 21.90063509461097,-12.06698729810778 A 34.11940527426284 34.11940527426284 0 0 1 22.64714171193606,-12.485588142953418 L 22.169020950783413,-13.363882249591285 A 35.11940527426284 35.11940527426284 0 0 0 21.40063509461097,-12.933012701892217 Z M 53.27199078938112,-14.589718259104991 L 52.86447668298118,-13.676519346991618 A 34.11940527426284 34.11940527426284 0 0 1 53.64161254354024,-13.317968581759192 L 52.35073938554247,-10.60989796045685 L 60.175589519578665,-10.757276316648113 L 55.362776754203935,-16.928729410162315 L 54.07190359620616,-14.220658788859975 A 35.11940527426284 35.11940527426284 0 0 0 53.27199078938112,-14.589718259104991"/><text text-anchor="middle" pointer-events="none" font-size="8px" fill="#000000" x="37.59696978008885" y="-14.111264612731397" font-family="sans-serif">Publi…</text></g><g class="relationship" transform="translate(109.65592157418021 -46.972164750170535) rotate(493.96876017001864)"><path class="outline" fill="#A5ABB6" stroke="none" d="M 24.018736134675446,-6.953439040707552 L 24.277555179777966,-5.987513214418485 A 176.573417972132 176.573417972132 0 0 1 44.75830468295512,-10.193765093651677 L 44.615475630788055,-11.183512466397389 A 177.573417972132 177.573417972132 0 0 0 24.018736134675446,-6.953439040707552 Z M 91.07454160530384,-11.746483957771602 L 90.95573765797653,-10.753566225983406 A 176.573417972132 176.573417972132 0 0 1 111.53239765995016,-7.044830828759423 L 110.82638631021187,-4.12908941806459 L 118.4534628431945,-5.883427914485858 L 112.4737461262679,-10.932486043019201 L 111.76773477652961,-8.016744632324368 A 177.573417972132 177.573417972132 0 0 0 91.07454160530384,-11.746483957771602"/><text text-anchor="middle" pointer-events="none" font-size="8px" fill="#000000" x="67.83257465442061" y="-9.491107607045564" transform="rotate(180 67.83257465442061 -12.491107607045564)" font-family="sans-serif">twowheeler</text></g><g class="relationship" transform="translate(10.548534040401982 55.76858496783094) rotate(426.8807420990381)"><path class="outline" fill="#A5ABB6" stroke="none" d="M 24.018736134675446,-6.953439040707552 L 24.277555179777966,-5.987513214418485 A 115.9536074723807 115.9536074723807 0 0 1 29.580054163273314,-7.275391927406204 L 29.36696460515341,-8.252424598415857 A 116.9536074723807 116.9536074723807 0 0 0 24.018736134675446,-6.953439040707552 Z M 75.71700223080362,-8.958700209476731 L 75.53378047687958,-7.9756286002391334 A 115.9536074723807 115.9536074723807 0 0 1 80.8730575631539,-6.849907833209376 L 80.18525230204943,-3.9298181217797734 L 87.8012344333404,-5.731710509203888 L 81.79013124462654,-10.74336078178218 L 81.10232598352206,-7.823271070352576 A 116.9536074723807 116.9536074723807 0 0 0 75.71700223080362,-8.958700209476731"/><text text-anchor="middle" pointer-events="none" font-size="8px" fill="#000000" x="52.51425878262034" y="-7.425019103121585" font-family="sans-serif">twowheeler</text></g><g class="relationship" transform="translate(54.57804613198422 158.89826554667573) rotate(374.77200375290937)"><path class="outline" fill="#A5ABB6" stroke="none" d="M 24.018736134675446,6.953439040707552 L 24.277555179777966,5.987513214418485 A 114.404904686162 114.404904686162 0 0 0 29.1975732159691,7.189762746990084 L 28.981759477760438,8.166197296973039 A 115.404904686162 115.404904686162 0 0 1 24.018736134675446,6.953439040707552 Z M 75.32603093691485,8.87702946351989 L 75.14026493650508,7.8944354511771735 A 114.404904686162 114.404904686162 0 0 0 80.0948403085366,6.8436432272466865 L 79.40762020163473,3.9234157490063755 L 87.02324110891432,5.726834224182347 L 81.01113378440579,10.737279864900435 L 80.32391367750391,7.817052386660124 A 115.404904686162 115.404904686162 0 0 1 75.32603093691485,8.87702946351989"/><text text-anchor="middle" pointer-events="none" font-size="8px" fill="#000000" x="52.12550996137398" y="13.372252119296746" font-family="sans-serif">twowheeler</text></g><g class="relationship" transform="translate(109.65592157418021 -46.972164750170535) rotate(493.96876017001864)"><path class="outline" fill="#A5ABB6" stroke="none" d="M 24.018736134675446,6.953439040707552 L 24.277555179777966,5.987513214418485 A 176.573417972132 176.573417972132 0 0 0 58.20664817639158,11.611290267011412 L 58.139982023758805,12.609065604496351 A 177.573417972132 177.573417972132 0 0 1 24.018736134675446,6.953439040707552 Z M 77.5194629529713,12.843898032827155 L 77.4769940720471,11.844800242741996 A 176.573417972132 176.573417972132 0 0 0 111.53239765995016,7.044830828759423 L 110.82638631021187,4.12908941806459 L 118.4534628431945,5.883427914485858 L 112.4737461262679,10.932486043019201 L 111.76773477652961,8.016744632324368 A 177.573417972132 177.573417972132 0 0 1 77.5194629529713,12.843898032827155"/><text text-anchor="middle" pointer-events="none" font-size="8px" fill="#000000" x="67.83257465442058" y="15.491107607045564" transform="rotate(180 67.83257465442058 12.491107607045564)" font-family="sans-serif">trek</text></g><g class="relationship" transform="translate(10.548534040401982 55.76858496783094) rotate(426.8807420990381)"><path class="outline" fill="#A5ABB6" stroke="none" d="M 24.018736134675446,6.953439040707552 L 24.277555179777966,5.987513214418485 A 115.9536074723807 115.9536074723807 0 0 0 42.91367318603893,9.379257825931347 L 42.81557460847942,10.374434528372078 A 116.9536074723807 116.9536074723807 0 0 1 24.018736134675446,6.953439040707552 Z M 62.20998132229857,10.669963877530265 L 62.14224998547599,9.672260281259184 A 115.9536074723807 115.9536074723807 0 0 0 80.8730575631539,6.849907833209376 L 80.18525230204943,3.9298181217797734 L 87.8012344333404,5.731710509203888 L 81.79013124462654,10.74336078178218 L 81.10232598352206,7.823271070352576 A 116.9536074723807 116.9536074723807 0 0 1 62.20998132229857,10.669963877530265"/><text text-anchor="middle" pointer-events="none" font-size="8px" fill="#000000" x="52.51425878262035" y="13.425019103121585" font-family="sans-serif">trek</text></g><g class="relationship" transform="translate(54.57804613198422 158.89826554667573) rotate(374.77200375290937)"><path class="outline" fill="#A5ABB6" stroke="none" d="M 24.018736134675446,-6.953439040707552 L 24.277555179777966,-5.987513214418485 A 114.404904686162 114.404904686162 0 0 1 42.525969882210106,-9.320189890516602 L 42.42665811306303,-10.315246257014934 A 115.404904686162 115.404904686162 0 0 0 24.018736134675446,-6.953439040707552 Z M 61.82154775269835,-10.612726635676836 L 61.752800029986055,-9.615092559162875 A 114.404904686162 114.404904686162 0 0 1 80.0948403085366,-6.8436432272466865 L 79.40762020163473,-3.9234157490063755 L 87.02324110891432,-5.726834224182347 L 81.01113378440579,-10.737279864900435 L 80.32391367750391,-7.817052386660124 A 115.404904686162 115.404904686162 0 0 0 61.82154775269835,-10.612726635676836"/><text text-anchor="middle" pointer-events="none" font-size="8px" fill="#000000" x="52.125509961373965" y="-7.372252119296746" font-family="sans-serif">trek</text></g><g class="relationship" transform="translate(109.65592157418021 -46.972164750170535) rotate(413.1457071728729)"><path class="outline" fill="#A5ABB6" stroke="none" d="M 25 0.5 L 25.66214173259636 0.5 L 25.66214173259636 -0.5 L 25 -0.5 Z M 44.99807923259636 0.5 L 45.66022096519272 0.5 L 45.66022096519272 3.5 L 52.66022096519272 0 L 45.66022096519272 -3.5 L 45.66022096519272 -0.5 L 44.99807923259636 -0.5 Z"/><text text-anchor="middle" pointer-events="none" font-size="8px" fill="#000000" x="35.33011048259636" y="3" font-family="sans-serif">trek</text></g><g class="relationship" transform="translate(10.548534040401982 55.76858496783094) rotate(475.8925967133133)"><path class="outline" fill="#A5ABB6" stroke="none" d="M 24.018736134675446,-6.953439040707552 L 24.277555179777966,-5.987513214418485 A 144.48114683222863 144.48114683222863 0 0 1 36.6818672787406,-8.732968650486356 L 36.50890242548891,-9.717896647620961 A 145.48114683222863 145.48114683222863 0 0 0 24.018736134675446,-6.953439040707552 Z M 82.93041462033476,-10.349020545764404 L 82.78428993376875,-9.359754365216446 A 144.48114683222863 144.48114683222863 0 0 1 95.2586552197308,-6.952537110315984 L 94.56126400327294,-4.03472191890865 L 102.18312253575756,-5.811593470482195 L 96.18851017500795,-10.842957365525765 L 95.49111895855009,-7.92514217411843 A 145.48114683222863 145.48114683222863 0 0 0 82.93041462033476,-10.349020545764404"/><text text-anchor="middle" pointer-events="none" font-size="8px" fill="#000000" x="59.70111788179777" y="-8.397191771920006" transform="rotate(180 59.70111788179777 -11.397191771920006)" font-family="sans-serif">twowheeler</text></g><g class="relationship" transform="translate(-44.69142362059466 169.56820759802235) rotate(353.86513733680385)"><path class="outline" fill="#A5ABB6" stroke="none" d="M 21.40063509461097,12.933012701892217 L 21.90063509461097,12.06698729810778 A 52.043636066324254 52.043636066324254 0 0 0 24.112022291169428,13.273337810688794 L 23.654513311469014,14.16254281151452 A 53.043636066324254 53.043636066324254 0 0 1 21.40063509461097,12.933012701892217 Z M 69.02321947888686,15.661932153231952 L 68.62541932950174,14.744460060387063 A 52.043636066324254 52.043636066324254 0 0 0 70.9116313926603,13.686750603789685 L 69.58644468382293,10.99530486093682 L 77.41253591078987,11.043222573644655 L 72.67854700444344,17.275344927593505 L 71.35336029560608,14.58389918474064 A 53.043636066324254 53.043636066324254 0 0 1 69.02321947888686,15.661932153231952"/><text text-anchor="middle" pointer-events="none" font-size="8px" fill="#000000" x="46.186887254607974" y="22.51084091395267" font-family="sans-serif">twowheeler</text></g><g class="relationship" transform="translate(10.548534040401982 55.76858496783094) rotate(475.8925967133133)"><path class="outline" fill="#A5ABB6" stroke="none" d="M 24.018736134675446,6.953439040707552 L 24.277555179777966,5.987513214418485 A 144.48114683222863 144.48114683222863 0 0 0 50.08568239348977,10.445268963888367 L 50.00548961056442,11.442048336451165 A 145.48114683222863 145.48114683222863 0 0 1 24.018736134675446,6.953439040707552 Z M 69.39194310921097,11.705616960667584 L 69.33887839506006,10.70702588514564 A 144.48114683222863 144.48114683222863 0 0 0 95.2586552197308,6.952537110315984 L 94.56126400327294,4.03472191890865 L 102.18312253575756,5.811593470482195 L 96.18851017500795,10.842957365525765 L 95.49111895855009,7.92514217411843 A 145.48114683222863 145.48114683222863 0 0 1 69.39194310921097,11.705616960667584"/><text text-anchor="middle" pointer-events="none" font-size="8px" fill="#000000" x="59.7011178817978" y="14.397191771920035" transform="rotate(180 59.7011178817978 11.397191771920035)" font-family="sans-serif">trek</text></g><g class="relationship" transform="translate(-44.69142362059466 169.56820759802235) rotate(353.86513733680385)"><path class="outline" fill="#A5ABB6" stroke="none" d="M 25 0.5 L 35.41476584228186 0.5 L 35.41476584228186 -0.5 L 25 -0.5 Z M 57.42648459228186 0.5 L 67.84125043456372 0.5 L 67.84125043456372 3.5 L 74.84125043456372 0 L 67.84125043456372 -3.5 L 67.84125043456372 -0.5 L 57.42648459228186 -0.5 Z"/><text text-anchor="middle" pointer-events="none" font-size="8px" fill="#000000" x="46.42062521728186" y="3" font-family="sans-serif">road</text></g><g class="relationship" transform="translate(-44.69142362059466 169.56820759802235) rotate(353.86513733680385)"><path class="outline" fill="#A5ABB6" stroke="none" d="M 21.40063509461097,-12.933012701892217 L 21.90063509461097,-12.06698729810778 A 52.043636066324254 52.043636066324254 0 0 1 36.715588944172104,-17.81857060291837 L 36.500253025495724,-18.79511063902943 A 53.043636066324254 53.043636066324254 0 0 0 21.40063509461097,-12.933012701892217 Z M 55.89964110223553,-19.43624057583581 L 55.749251940291806,-18.447613699825517 A 52.043636066324254 52.043636066324254 0 0 1 70.9116313926603,-13.686750603789685 L 69.58644468382293,-10.99530486093682 L 77.41253591078987,-11.043222573644655 L 72.67854700444344,-17.275344927593505 L 71.35336029560608,-14.58389918474064 A 53.043636066324254 53.043636066324254 0 0 0 55.89964110223553,-19.43624057583581"/><text text-anchor="middle" pointer-events="none" font-size="8px" fill="#000000" x="46.18688725460798" y="-16.51084091395267" font-family="sans-serif">trek</text></g><g class="relationship" transform="translate(-44.69142362059466 169.56820759802235) rotate(399.0371095986607)"><path class="outline" fill="#A5ABB6" stroke="none" d="M 25 0.5 L 50.326996721224226 0.5 L 50.326996721224226 -0.5 L 25 -0.5 Z M 69.66293422122422 0.5 L 94.98993094244845 0.5 L 94.98993094244845 3.5 L 101.98993094244845 0 L 94.98993094244845 -3.5 L 94.98993094244845 -0.5 L 69.66293422122422 -0.5 Z"/><text text-anchor="middle" pointer-events="none" font-size="8px" fill="#000000" x="59.994965471224226" y="3" font-family="sans-serif">trek</text></g><g class="relationship" transform="translate(53.94650641544395 249.54946364575756) rotate(330.1091074889372)"><path class="outline" fill="#A5ABB6" stroke="none" d="M 25 0.5 L 49.29593038739536 0.5 L 49.29593038739536 -0.5 L 25 -0.5 Z M 68.63186788739536 0.5 L 92.92779827479072 0.5 L 92.92779827479072 3.5 L 99.92779827479072 0 L 92.92779827479072 -3.5 L 92.92779827479072 -0.5 L 68.63186788739536 -0.5 Z"/><text text-anchor="middle" pointer-events="none" font-size="8px" fill="#000000" x="58.96389913739536" y="3" font-family="sans-serif">trek</text></g></g><g class="layer nodes"><g class="node" transform="translate(26.913282172462097,-46.78784598998859)"><circle class="outline" cx="0" cy="0" r="25" fill="#F16667" stroke="#eb2728" stroke-width="2px"/><text text-anchor="middle" pointer-events="none" font-family="sans-serif" dy="1.5625" font-size="25" fill="#FFFFFF"/><text text-anchor="middle" pointer-events="none" x="0" y="5" font-size="10px" fill="#FFFFFF" font-family="sans-serif"> Darjeeling</text></g><g class="node" transform="translate(162.25590618371544,187.29170345778135)"><circle class="outline" cx="0" cy="0" r="25" fill="#8DCC93" stroke="#5db665" stroke-width="2px"/><text text-anchor="middle" pointer-events="none" font-family="sans-serif" dy="1.5625" font-size="25" fill="#2A2C34"/><text text-anchor="middle" pointer-events="none" x="0" y="5" font-size="10px" fill="#2A2C34" font-family="sans-serif"> Sandak…</text></g><g class="node" transform="translate(156.23513147678943,15.16870042896283)"><circle class="outline" cx="0" cy="0" r="25" fill="#D9C8AE" stroke="#c0a378" stroke-width="2px"/><text text-anchor="middle" pointer-events="none" font-family="sans-serif" dy="1.5625" font-size="25" fill="#2A2C34"/><text text-anchor="middle" pointer-events="none" x="0" y="5" font-size="10px" fill="#2A2C34" font-family="sans-serif"> Tumbling</text></g><g class="node" transform="translate(284.1997192292896,56.66199974368689)"><circle class="outline" cx="0" cy="0" r="25" fill="#D9C8AE" stroke="#c0a378" stroke-width="2px"/><text text-anchor="middle" pointer-events="none" font-family="sans-serif" dy="1.5625" font-size="25" fill="#2A2C34"/><text text-anchor="middle" pointer-events="none" x="0" y="5" font-size="10px" fill="#2A2C34" font-family="sans-serif"> Gairibus</text></g><g class="node" transform="translate(192.02004839945715,63.71867712718005)"><circle class="outline" cx="0" cy="0" r="25" fill="#D9C8AE" stroke="#c0a378" stroke-width="2px"/><text text-anchor="middle" pointer-events="none" font-family="sans-serif" dy="1.5625" font-size="25" fill="#2A2C34"/><text text-anchor="middle" pointer-events="none" x="0" y="5" font-size="10px" fill="#2A2C34" font-family="sans-serif"> BhikeBh…</text></g><g class="node" transform="translate(109.65592157418021,-46.972164750170535)"><circle class="outline" cx="0" cy="0" r="25" fill="#F16667" stroke="#eb2728" stroke-width="2px"/><text text-anchor="middle" pointer-events="none" font-family="sans-serif" dy="1.5625" font-size="25" fill="#FFFFFF"/><text text-anchor="middle" pointer-events="none" x="0" y="5" font-size="10px" fill="#FFFFFF" font-family="sans-serif"> Rimbik</text></g><g class="node" transform="translate(10.548534040401982,55.76858496783094)"><circle class="outline" cx="0" cy="0" r="25" fill="#D9C8AE" stroke="#c0a378" stroke-width="2px"/><text text-anchor="middle" pointer-events="none" font-family="sans-serif" dy="1.5625" font-size="25" fill="#2A2C34"/><text text-anchor="middle" pointer-events="none" x="0" y="5" font-size="10px" fill="#2A2C34" font-family="sans-serif"> Sirikhola</text></g><g class="node" transform="translate(54.57804613198422,158.89826554667573)"><circle class="outline" cx="0" cy="0" r="25" fill="#D9C8AE" stroke="#c0a378" stroke-width="2px"/><text text-anchor="middle" pointer-events="none" font-family="sans-serif" dy="1.5625" font-size="25" fill="#2A2C34"/><text text-anchor="middle" pointer-events="none" x="0" y="5" font-size="10px" fill="#2A2C34" font-family="sans-serif"> Gurdum</text></g><g class="node" transform="translate(-44.69142362059466,169.56820759802235)"><circle class="outline" cx="0" cy="0" r="25" fill="#D9C8AE" stroke="#c0a378" stroke-width="2px"/><text text-anchor="middle" pointer-events="none" font-family="sans-serif" dy="1.5625" font-size="25" fill="#2A2C34"/><text text-anchor="middle" pointer-events="none" x="0" y="5" font-size="10px" fill="#2A2C34" font-family="sans-serif"> Rammam</text></g><g class="node" transform="translate(53.94650641544395,249.54946364575756)"><circle class="outline" cx="0" cy="0" r="25" fill="#8DCC93" stroke="#5db665" stroke-width="2px"/><text text-anchor="middle" pointer-events="none" font-family="sans-serif" dy="1.5625" font-size="25" fill="#2A2C34"/><text text-anchor="middle" pointer-events="none" x="0" y="5" font-size="10px" fill="#2A2C34" font-family="sans-serif"> Sabargr…</text></g></g></svg>