<svg xmlns="http://www.w3.org/2000/svg" width="220.93719482421875" height="194.00022888183594" viewBox="-10.472343444824219 21.362579345703125 220.93719482421875 194.00022888183594"><title>Neo4j Graph Visualization</title><desc>Created using Neo4j (http://www.neo4j.com/)</desc><g class="layer relationships"><g class="relationship" transform="translate(181.46484926269778 61.429021919306805) rotate(186.01841938038763)"><path class="outline" fill="#A5ABB6" stroke="none" d="M 24.018736134675446,6.953439040707552 L 24.277555179777966,5.987513214418485 A 102.79751074006498 102.79751074006498 0 0 0 25.0631975115515,6.194701195519869 L 24.812021086645885,7.1626425179003235 A 103.79751074006498 103.79751074006498 0 0 1 24.018736134675446,6.953439040707552 Z M 73.7007706419065,7.9513018346343785 L 73.48094589147863,6.975762456085604 A 102.79751074006498 102.79751074006498 0 0 0 74.27286228612395,6.794023200889564 L 73.59027707459595,3.872708868435201 L 81.20302659710546,5.688210096066633 L 75.18297590149461,10.689108977495382 L 74.50039068996661,7.767794645041018 A 103.79751074006498 103.79751074006498 0 0 1 73.7007706419065,7.9513018346343785"/><text text-anchor="middle" pointer-events="none" font-size="8px" fill="#000000" x="49.217359645804265" y="12.976815406372282" transform="rotate(180 49.217359645804265 9.976815406372282)" font-family="sans-serif">BUSINES…</text></g><g class="relationship" transform="translate(76.4992879875419 50.3625787431397) rotate(483.32376863284094)"><path class="outline" fill="#A5ABB6" stroke="none" d="M 24.018736134675446,6.953439040707552 L 24.277555179777966,5.987513214418485 A 102.75073228319467 102.75073228319467 0 0 0 25.05179263748452,6.191739517480627 L 24.800508696419726,7.159652933527198 A 103.75073228319467 103.75073228319467 0 0 1 24.018736134675446,6.953439040707552 Z M 73.6889432373219,7.948471359563371 L 73.46901667736142,6.972954928013422 A 102.75073228319467 102.75073228319467 0 0 0 74.24943980619469,6.7938131859197695 L 73.56687421195068,3.8724942698213725 L 81.17961154279828,5.688046618700133 L 75.15952726518671,10.688905074050966 L 74.4769616709427,7.767586157952569 A 103.75073228319467 103.75073228319467 0 0 1 73.6889432373219,7.948471359563371"/><text text-anchor="middle" pointer-events="none" font-size="8px" fill="#000000" x="49.20566037819081" y="12.975221962221937" transform="rotate(180 49.20566037819081 9.975221962221937)" font-family="sans-serif">BUSINES…</text></g><g class="relationship" transform="translate(18.527656344489152 138.53621970556264) rotate(366.0744484003663)"><path class="outline" fill="#A5ABB6" stroke="none" d="M 5.987513214418485,-24.277555179777966 L 6.953439040707552,-24.018736134675446 A 45.49889451783728 45.49889451783728 0 0 1 14.554304815928695,-39.61052368670579 L 13.755435043545319,-40.21202770728431 A 46.49889451783728 46.49889451783728 0 0 0 5.987513214418485,-24.277555179777966 Z M 84.24729551212872,-44.650134698101354 L 83.53017525508156,-43.95318524732848 A 45.49889451783728 45.49889451783728 0 0 1 93.02656113583643,-29.437825975013656 L 90.24904981874937,-28.304057531523842 L 96.1349393901605,-23.145927642392156 L 96.72990955861917,-30.949517233000076 L 93.95239824153211,-29.815748789510263 A 46.49889451783728 46.49889451783728 0 0 0 84.24729551212872,-44.650134698101354"/><text text-anchor="middle" pointer-events="none" font-size="8px" fill="#000000" x="48.011668185081" y="-55.150753917449975" font-family="sans-serif">BUSINESS_FLIGHT</text></g><g class="relationship" transform="translate(181.46484926269778 61.429021919306805) rotate(186.01841938038763)"><path class="outline" fill="#A5ABB6" stroke="none" d="M 24.018736134675446,-6.953439040707552 L 24.277555179777966,-5.987513214418485 A 102.79751074006498 102.79751074006498 0 0 1 26.135164749388647,-6.466725712232645 L 25.894416273857676,-7.437313251576484 A 103.79751074006498 103.79751074006498 0 0 0 24.018736134675446,-6.953439040707552 Z M 72.61007914246409,-8.190916955780253 L 72.40076226926435,-7.2130690910314 A 102.79751074006498 102.79751074006498 0 0 1 74.27286228612395,-6.794023200889564 L 73.59027707459595,-3.872708868435201 L 81.20302659710546,-5.688210096066633 L 75.18297590149461,-10.689108977495382 L 74.50039068996661,-7.767794645041018 A 103.79751074006498 103.79751074006498 0 0 0 72.61007914246409,-8.190916955780253"/><text text-anchor="middle" pointer-events="none" font-size="8px" fill="#000000" x="49.21735964580422" y="-6.976815406372282" transform="rotate(180 49.21735964580422 -9.976815406372282)" font-family="sans-serif">CHEAPE…</text></g><g class="relationship" transform="translate(123.51784228094942 149.70907992307082) rotate(244.67281674663462)"><path class="outline" fill="#A5ABB6" stroke="none" d="M 17.324116139070416,18.03122292025696 L 18.031222920256962,17.324116139070412 A 49.65201301570921 49.65201301570921 0 0 0 18.499806667032203,17.786527795051157 L 17.80213724232558,18.502947625757656 A 50.65201301570921 50.65201301570921 0 0 1 17.324116139070416,18.03122292025696 Z M 85.22609481550525,21.408474460763983 L 84.59264325293208,20.634692115479723 A 49.65201301570921 49.65201301570921 0 0 0 85.09926976585636,20.214305574626003 L 83.1683044453254,17.918358508401088 L 90.77830714046965,16.091377671091262 L 87.67389019323097,23.275568329592556 L 85.74292487270002,20.97962126336764 A 50.65201301570921 50.65201301570921 0 0 1 85.22609481550525,21.408474460763983"/><text text-anchor="middle" pointer-events="none" font-size="8px" fill="#000000" x="50.98128176044822" y="35.320351657771" transform="rotate(180 50.98128176044822 32.320351657771)" font-family="sans-serif">CHEAPEST_FLI…</text></g><g class="relationship" transform="translate(123.51784228094942 149.70907992307082) rotate(303.28088435442004)"><path class="outline" fill="#A5ABB6" stroke="none" d="M 17.324116139070416,18.03122292025696 L 18.031222920256962,17.324116139070412 A 46.49826667473076 46.49826667473076 0 0 0 19.155608912270715,18.411302104467573 L 18.472683376374,19.14179010054977 A 47.49826667473076 47.49826667473076 0 0 1 17.324116139070416,18.03122292025696 Z M 80.1176075293632,21.90189211980477 L 79.5026978289736,21.11329459231259 A 46.49826667473076 46.49826667473076 0 0 0 80.71974563989674,20.13094444683465 L 78.79649439814345,17.82853165563182 L 86.4125840263289,16.027093681277442 L 83.28408062890112,23.200828168438427 L 81.36082938714783,20.898415377235597 A 47.49826667473076 47.49826667473076 0 0 1 80.1176075293632,21.90189211980477"/><text text-anchor="middle" pointer-events="none" font-size="8px" fill="#000000" x="48.80825903619969" y="34.39610445888372" font-family="sans-serif">CHEAPEST_F…</text></g><g class="relationship" transform="translate(123.51784228094942 149.70907992307082) rotate(244.67281674663462)"><path class="outline" fill="#A5ABB6" stroke="none" d="M 24.018736134675446,6.953439040707552 L 24.277555179777966,5.987513214418485 A 111.51784766077323 111.51784766077323 0 0 0 25.69328802015991,6.356920803951681 L 25.447164098484524,7.326159172558249 A 112.51784766077323 112.51784766077323 0 0 1 24.018736134675446,6.953439040707552 Z M 77.4343594044816,8.133434137109731 L 77.2184482233995,7.1570211292673775 A 111.51784766077323 111.51784766077323 0 0 0 78.64496828800705,6.831749015780109 L 77.95885918171328,3.911260307659367 L 85.57379345800442,5.717575885781431 L 79.55978042973209,10.725733959941099 L 78.87367132343832,7.805245251820357 A 112.51784766077323 112.51784766077323 0 0 1 77.4343594044816,8.133434137109731"/><text text-anchor="middle" pointer-events="none" font-size="8px" fill="#000000" x="51.401256218239865" y="13.27388877036627" transform="rotate(180 51.401256218239865 10.27388877036627)" font-family="sans-serif">CHEAPES…</text></g><g class="relationship" transform="translate(123.51784228094942 149.70907992307082) rotate(303.28088435442004)"><path class="outline" fill="#A5ABB6" stroke="none" d="M 24.018736134675446,6.953439040707552 L 24.277555179777966,5.987513214418485 A 102.90165242303563 102.90165242303563 0 0 0 26.16062798133378,6.473057445368227 L 25.92010866959039,7.443701798712169 A 103.90165242303563 103.90165242303563 0 0 1 24.018736134675446,6.953439040707552 Z M 72.63636109900473,8.196965946304516 L 72.42726049287415,7.219071812711405 A 102.90165242303563 102.90165242303563 0 0 0 74.32500837954407,6.794490448533132 L 73.64237952289834,3.8731863144049283 L 81.2551561686175,5.688573805381119 L 75.23518018840504,10.689562627370737 L 74.5525513317593,7.768258493242534 A 103.90165242303563 103.90165242303563 0 0 1 72.63636109900473,8.196965946304516"/><text text-anchor="middle" pointer-events="none" font-size="8px" fill="#000000" x="49.243406054786426" y="12.980362856316646" font-family="sans-serif">CHEAPE…</text></g><g class="relationship" transform="translate(123.51784228094942 149.70907992307082) rotate(186.0744484003663)"><path class="outline" fill="#A5ABB6" stroke="none" d="M 11.542385173217793,22.18159923254142 L 12.420064162785048,21.70235024582136 A 43.845110362363044 43.845110362363044 0 0 0 14.462396291617182,25.073006188415008 L 13.631297915303108,25.6291316139155 A 44.845110362363044 44.845110362363044 0 0 1 11.542385173217793,22.18159923254142 Z M 85.13225564888171,29.66156488550558 L 84.36895594799569,29.01552033082898 A 43.845110362363044 43.845110362363044 0 0 0 86.77732131392706,25.895869986321753 L 84.32263539608977,24.17119116266466 L 91.21068622209984,20.455715981977555 L 90.05023587104347,28.19544175119788 L 87.59554995320617,26.470762927540786 A 44.845110362363044 44.845110362363044 0 0 1 85.13225564888171,29.66156488550558"/><text text-anchor="middle" pointer-events="none" font-size="8px" fill="#000000" x="48.40503678206889" y="47.964381387942424" transform="rotate(180 48.40503678206889 44.964381387942424)" font-family="sans-serif">CHEAPEST_FLIGHT</text></g><g class="relationship" transform="translate(123.51784228094942 149.70907992307082) rotate(186.0744484003663)"><path class="outline" fill="#A5ABB6" stroke="none" d="M 16.44653366033987,18.835114296422724 L 17.186485024722753,18.16245392272147 A 45.56449642671381 45.56449642671381 0 0 0 17.84438910806721,18.870923485045694 L 17.11887670680121,19.559132577988557 A 46.56449642671381 46.56449642671381 0 0 1 16.44653366033987,18.835114296422724 Z M 81.53306464765393,22.584235721375187 L 80.87524440529882,21.83106075581417 A 45.56449642671381 45.56449642671381 0 0 0 81.59665049236882,21.187368157472754 L 79.57569185726246,18.970224455501903 L 87.10681223615187,16.841321959219705 L 84.29126200584398,24.143559760100555 L 82.27030337073761,21.926416058129703 A 46.56449642671381 46.56449642671381 0 0 1 81.53306464765393,22.584235721375187"/><text text-anchor="middle" pointer-events="none" font-size="8px" fill="#000000" x="48.741037077197134" y="36.526804209852536" transform="rotate(180 48.741037077197134 33.526804209852536)" font-family="sans-serif">BUSINESS_FLI…</text></g><g class="relationship" transform="translate(123.51784228094942 149.70907992307082) rotate(244.67281674663462)"><path class="outline" fill="#A5ABB6" stroke="none" d="M 24.018736134675446,-6.953439040707552 L 24.277555179777966,-5.987513214418485 A 111.51784766077323 111.51784766077323 0 0 1 24.622322404487395,-6.079302466725011 L 24.366594947251226,-7.0460513832568665 A 112.51784766077323 112.51784766077323 0 0 0 24.018736134675446,-6.953439040707552 Z M 78.523104689467,-7.887012204956292 L 78.29751730760769,-6.91278926684312 A 111.51784766077323 111.51784766077323 0 0 1 78.64496828800705,-6.831749015780109 L 77.95885918171328,-3.911260307659367 L 85.57379345800442,-5.717575885781431 L 79.55978042973209,-10.725733959941099 L 78.87367132343832,-7.805245251820357 A 112.51784766077323 112.51784766077323 0 0 0 78.523104689467,-7.887012204956292"/><text text-anchor="middle" pointer-events="none" font-size="8px" fill="#000000" x="51.40125621823982" y="-7.27388877036627" transform="rotate(180 51.40125621823982 -10.27388877036627)" font-family="sans-serif">BUSINESS…</text></g><g class="relationship" transform="translate(123.51784228094942 149.70907992307082) rotate(303.28088435442004)"><path class="outline" fill="#A5ABB6" stroke="none" d="M 24.018736134675446,-6.953439040707552 L 24.277555179777966,-5.987513214418485 A 102.90165242303563 102.90165242303563 0 0 1 25.088589813607932,-6.20129050326571 L 24.837652416804854,-7.169293820866272 A 103.90165242303563 103.90165242303563 0 0 0 24.018736134675446,-6.953439040707552 Z M 73.72710158096757,-7.957599117969167 L 73.50750315832948,-6.982008767066262 A 102.90165242303563 102.90165242303563 0 0 1 74.32500837954407,-6.794490448533132 L 73.64237952289834,-3.8731863144049283 L 81.2551561686175,-5.688573805381119 L 75.23518018840504,-10.689562627370737 L 74.5525513317593,-7.768258493242534 A 103.90165242303563 103.90165242303563 0 0 0 73.72710158096757,-7.957599117969167"/><text text-anchor="middle" pointer-events="none" font-size="8px" fill="#000000" x="49.2434060547864" y="-6.9803628563166455" font-family="sans-serif">BUSINES…</text></g><g class="relationship" transform="translate(123.51784228094942 149.70907992307082) rotate(244.67281674663462)"><path class="outline" fill="#A5ABB6" stroke="none" d="M 17.324116139070416,-18.03122292025696 L 18.031222920256962,-17.324116139070412 A 49.65201301570921 49.65201301570921 0 0 1 19.456692705309628,-18.693926219486002 L 18.77829512841258,-19.42862120902943 A 50.65201301570921 50.65201301570921 0 0 0 17.324116139070416,-18.03122292025696 Z M 84.17392279583632,-22.246740434284824 L 83.5612437940564,-21.45640857944285 A 49.65201301570921 49.65201301570921 0 0 1 85.09926976585636,-20.214305574626003 L 83.1683044453254,-17.918358508401088 L 90.77830714046965,-16.091377671091262 L 87.67389019323097,-23.275568329592556 L 85.74292487270002,-20.97962126336764 A 50.65201301570921 50.65201301570921 0 0 0 84.17392279583632,-22.246740434284824"/><text text-anchor="middle" pointer-events="none" font-size="8px" fill="#000000" x="50.98128176044822" y="-29.320351657771" transform="rotate(180 50.98128176044822 -32.320351657771)" font-family="sans-serif">BUSINESS_FLI…</text></g><g class="relationship" transform="translate(123.51784228094942 149.70907992307082) rotate(303.28088435442004)"><path class="outline" fill="#A5ABB6" stroke="none" d="M 17.324116139070416,-18.03122292025696 L 18.031222920256962,-17.324116139070412 A 46.49826667473076 46.49826667473076 0 0 1 18.51629328458302,-17.802133513828515 L 17.8196185129963,-18.51952062176578 A 47.49826667473076 47.49826667473076 0 0 0 17.324116139070416,-18.03122292025696 Z M 80.82367094246533,-21.340476519128067 L 80.19389620672746,-20.563698698753228 A 46.49826667473076 46.49826667473076 0 0 1 80.71974563989674,-20.13094444683465 L 78.79649439814345,-17.82853165563182 L 86.4125840263289,-16.027093681277442 L 83.28408062890112,-23.200828168438427 L 81.36082938714783,-20.898415377235597 A 47.49826667473076 47.49826667473076 0 0 0 80.82367094246533,-21.340476519128067"/><text text-anchor="middle" pointer-events="none" font-size="8px" fill="#000000" x="48.80825903619969" y="-28.39610445888372" font-family="sans-serif">BUSINESS_FL…</text></g><g class="relationship" transform="translate(76.4992879875419 50.3625787431397) rotate(483.32376863284094)"><path class="outline" fill="#A5ABB6" stroke="none" d="M 24.018736134675446,-6.953439040707552 L 24.277555179777966,-5.987513214418485 A 102.75073228319467 102.75073228319467 0 0 1 26.12372794895945,-6.463879891973022 L 25.88287639399698,-7.434441857265369 A 103.75073228319467 103.75073228319467 0 0 0 24.018736134675446,-6.953439040707552 Z M 72.59827379114309,-8.188198171872685 L 72.38885963357416,-7.2103711367536505 A 102.75073228319467 102.75073228319467 0 0 1 74.24943980619469,-6.7938131859197695 L 73.56687421195068,-3.8724942698213725 L 81.17961154279828,-5.688046618700133 L 75.15952726518671,-10.688905074050966 L 74.4769616709427,-7.767586157952569 A 103.75073228319467 103.75073228319467 0 0 0 72.59827379114309,-8.188198171872685"/><text text-anchor="middle" pointer-events="none" font-size="8px" fill="#000000" x="49.205660378190785" y="-6.975221962221937" transform="rotate(180 49.205660378190785 -9.975221962221937)" font-family="sans-serif">CHEAPE…</text></g><g class="relationship" transform="translate(18.527656344489152 138.53621970556264) rotate(366.0744484003663)"><path class="outline" fill="#A5ABB6" stroke="none" d="M 20.42347816666382,-14.426764695378036 L 20.983985768904716,-13.598615416666664 A 53.376636524772486 53.376636524772486 0 0 1 22.308776765519323,-14.46688043799297 L 21.773088842502684,-15.311296478303738 A 54.376636524772486 54.376636524772486 0 0 0 20.42347816666382,-14.426764695378036 Z M 76.72773439376591,-17.247168002549586 L 76.25279258564375,-16.367150798798633 A 53.376636524772486 53.376636524772486 0 0 1 77.63539616399412,-15.594258389014028 L 76.1328623824679,-12.997646705420859 L 83.94457905596587,-12.521114846051738 L 79.63877453936239,-19.056407300471587 L 78.13624075783618,-16.459795616878417 A 54.376636524772486 54.376636524772486 0 0 0 76.72773439376591,-17.247168002549586"/><text text-anchor="middle" pointer-events="none" font-size="8px" fill="#000000" x="49.00527598885071" y="-20.23803164965571" font-family="sans-serif">CHEAPEST…</text></g><g class="relationship" transform="translate(18.527656344489152 138.53621970556264) rotate(366.0744484003663)"><path class="outline" fill="#A5ABB6" stroke="none" d="M 23.249011035194496,-9.205079352477338 L 23.59847521479359,-8.268129627477578 A 78.12967022719582 78.12967022719582 0 0 1 23.82072561105673,-8.350640855614117 L 23.474106066480623,-9.28864666120269 A 79.12967022719582 79.12967022719582 0 0 0 23.249011035194496,-9.205079352477338 Z M 75.06709933689825,-10.414092137122196 L 74.76171321631381,-9.461863531505685 A 78.12967022719582 78.12967022719582 0 0 1 74.9873502734237,-9.389122484864094 L 74.06252796659852,-6.535229757237744 L 81.80057035568937,-7.706852556876421 L 76.22044668252393,-13.194312788365895 L 75.29562437569875,-10.340420060739545 A 79.12967022719582 79.12967022719582 0 0 0 75.06709933689825,-10.414092137122196"/><text text-anchor="middle" pointer-events="none" font-size="8px" fill="#000000" x="49.18718285975392" y="-10.675525642788784" font-family="sans-serif">CHEAPES…</text></g><g class="relationship" transform="translate(18.527656344489152 138.53621970556264) rotate(366.0744484003663)"><path class="outline" fill="#A5ABB6" stroke="none" d="M 24.763837585503556,-3.464440508769274 L 24.88255664816086,-2.4715126240959857 A 219.1681697322326 219.1681697322326 0 0 1 25.941947999322778,-2.5955643877308603 L 25.828062628311738,-3.5890582841739445 A 220.1681697322326 220.1681697322326 0 0 0 24.763837585503556,-3.464440508769274 Z M 72.742747763952,-3.935512188085653 L 72.64354745053964,-2.940444704032984 A 219.1681697322326 219.1681697322326 0 0 1 73.70465534694466,-2.8320523280810344 L 73.39252983549314,0.15166643633043808 L 80.71868671581335,-2.601045928762719 L 74.12082269554669,-6.810344013962998 L 73.80869718409517,-3.826625249551525 A 220.1681697322326 220.1681697322326 0 0 0 72.742747763952,-3.935512188085653"/><text text-anchor="middle" pointer-events="none" font-size="8px" fill="#000000" x="49.27984284058964" y="-1.5155056672745388" font-family="sans-serif">CHEAPE…</text></g><g class="relationship" transform="translate(18.527656344489152 138.53621970556264) rotate(366.0744484003663)"><path class="outline" fill="#A5ABB6" stroke="none" d="M 24.763837585503556,3.464440508769274 L 24.88255664816086,2.4715126240959857 A 219.1681697322326 219.1681697322326 0 0 0 25.941947999322874,2.5955643877308887 L 25.828062628311837,3.589058284173973 A 220.1681697322326 220.1681697322326 0 0 1 24.763837585503556,3.464440508769274 Z M 72.74274776395212,3.9355121880856245 L 72.64354745053976,2.9404447040329558 A 219.1681697322326 219.1681697322326 0 0 0 73.70465534694466,2.8320523280810344 L 73.39252983549314,-0.15166643633043808 L 80.71868671581335,2.601045928762719 L 74.12082269554669,6.810344013962998 L 73.80869718409517,3.826625249551525 A 220.1681697322326 220.1681697322326 0 0 1 72.74274776395212,3.9355121880856245"/><text text-anchor="middle" pointer-events="none" font-size="8px" fill="#000000" x="49.27984284058975" y="7.515505667274539" font-family="sans-serif">CHEAPE…</text></g><g class="relationship" transform="translate(18.527656344489152 138.53621970556264) rotate(366.0744484003663)"><path class="outline" fill="#A5ABB6" stroke="none" d="M 23.249011035194496,9.205079352477338 L 23.59847521479359,8.268129627477578 A 78.12967022719582 78.12967022719582 0 0 0 23.820725611056737,8.350640855614117 L 23.474106066480633,9.28864666120269 A 79.12967022719582 79.12967022719582 0 0 1 23.249011035194496,9.205079352477338 Z M 75.06709933689825,10.414092137122196 L 74.76171321631381,9.461863531505685 A 78.12967022719582 78.12967022719582 0 0 0 74.9873502734237,9.389122484864094 L 74.06252796659852,6.535229757237744 L 81.80057035568937,7.706852556876421 L 76.22044668252393,13.194312788365895 L 75.29562437569875,10.340420060739545 A 79.12967022719582 79.12967022719582 0 0 1 75.06709933689825,10.414092137122196"/><text text-anchor="middle" pointer-events="none" font-size="8px" fill="#000000" x="49.187182859753925" y="16.675525642788784" font-family="sans-serif">CHEAPES…</text></g><g class="relationship" transform="translate(18.527656344489152 138.53621970556264) rotate(366.0744484003663)"><path class="outline" fill="#A5ABB6" stroke="none" d="M 20.42347816666382,14.426764695378036 L 20.983985768904716,13.598615416666664 A 53.376636524772486 53.376636524772486 0 0 0 21.566022258334094,13.987010896779282 L 21.01641898666411,14.82243668269306 A 54.376636524772486 54.376636524772486 0 0 1 20.42347816666382,14.426764695378036 Z M 77.51692780233248,16.81276388841806 L 77.02747252925543,15.940735485407544 A 53.376636524772486 53.376636524772486 0 0 0 77.63539616399412,15.594258389014028 L 76.1328623824679,12.997646705420859 L 83.94457905596587,12.521114846051738 L 79.63877453936239,19.056407300471587 L 78.13624075783618,16.459795616878417 A 54.376636524772486 54.376636524772486 0 0 1 77.51692780233248,16.81276388841806"/><text text-anchor="middle" pointer-events="none" font-size="8px" fill="#000000" x="49.00527598885072" y="26.23803164965571" font-family="sans-serif">BUSINESS_…</text></g><g class="relationship" transform="translate(18.527656344489152 138.53621970556264) rotate(366.0744484003663)"><path class="outline" fill="#A5ABB6" stroke="none" d="M 16.44653366033987,18.835114296422724 L 17.186485024722753,18.16245392272147 A 45.56449642671381 45.56449642671381 0 0 0 17.84438910806721,18.870923485045694 L 17.11887670680121,19.559132577988557 A 46.56449642671381 46.56449642671381 0 0 1 16.44653366033987,18.835114296422724 Z M 81.53306464765393,22.584235721375187 L 80.87524440529882,21.83106075581417 A 45.56449642671381 45.56449642671381 0 0 0 81.59665049236882,21.187368157472754 L 79.57569185726246,18.970224455501903 L 87.10681223615187,16.841321959219705 L 84.29126200584398,24.143559760100555 L 82.27030337073761,21.926416058129703 A 46.56449642671381 46.56449642671381 0 0 1 81.53306464765393,22.584235721375187"/><text text-anchor="middle" pointer-events="none" font-size="8px" fill="#000000" x="48.741037077197134" y="36.526804209852536" font-family="sans-serif">BUSINESS_FLI…</text></g><g class="relationship" transform="translate(18.527656344489152 138.53621970556264) rotate(366.0744484003663)"><path class="outline" fill="#A5ABB6" stroke="none" d="M 11.542385173217793,22.18159923254142 L 12.420064162785048,21.70235024582136 A 43.845110362363044 43.845110362363044 0 0 0 15.211148172929832,26.156409015817072 L 14.397127000325007,26.737244216671034 A 44.845110362363044 44.845110362363044 0 0 1 11.542385173217793,22.18159923254142 Z M 84.24669074754877,30.676543965771877 L 83.50313823636029,30.00786641784217 A 43.845110362363044 43.845110362363044 0 0 0 86.77732131392706,25.895869986321753 L 84.32263539608977,24.17119116266466 L 91.21068622209984,20.455715981977555 L 90.05023587104347,28.19544175119788 L 87.59554995320617,26.470762927540786 A 44.845110362363044 44.845110362363044 0 0 1 84.24669074754877,30.676543965771877"/><text text-anchor="middle" pointer-events="none" font-size="8px" fill="#000000" x="48.40503678206889" y="47.964381387942424" font-family="sans-serif">BUSINESS_FLIGHT</text></g><g class="relationship" transform="translate(18.527656344489152 138.53621970556264) rotate(366.0744484003663)"><path class="outline" fill="#A5ABB6" stroke="none" d="M 5.987513214418485,24.277555179777966 L 6.953439040707552,24.018736134675446 A 45.49889451783728 45.49889451783728 0 0 0 14.554304815928695,39.61052368670579 L 13.755435043545319,40.21202770728431 A 46.49889451783728 46.49889451783728 0 0 1 5.987513214418485,24.277555179777966 Z M 84.24729551212872,44.650134698101354 L 83.53017525508156,43.95318524732848 A 45.49889451783728 45.49889451783728 0 0 0 93.02656113583643,29.437825975013656 L 90.24904981874937,28.304057531523842 L 96.1349393901605,23.145927642392156 L 96.72990955861917,30.949517233000076 L 93.95239824153211,29.815748789510263 A 46.49889451783728 46.49889451783728 0 0 1 84.24729551212872,44.650134698101354"/><text text-anchor="middle" pointer-events="none" font-size="8px" fill="#000000" x="48.011668185081" y="61.150753917449975" font-family="sans-serif">BUSINESS_FLIGHT</text></g></g><g class="layer nodes"><g class="node" transform="translate(181.46484926269778,61.429021919306805)"><circle class="outline" cx="0" cy="0" r="25" fill="#ECB5C9" stroke="#da7298" stroke-width="2px"/><text text-anchor="middle" pointer-events="none" font-family="sans-serif" dy="1.5625" font-size="25" fill="#2A2C34"/><text text-anchor="middle" pointer-events="none" x="0" y="5" font-size="10px" fill="#2A2C34" font-family="sans-serif"> LAX</text></g><g class="node" transform="translate(123.51784228094942,149.70907992307082)"><circle class="outline" cx="0" cy="0" r="25" fill="#ECB5C9" stroke="#da7298" stroke-width="2px"/><text text-anchor="middle" pointer-events="none" font-family="sans-serif" dy="1.5625" font-size="25" fill="#2A2C34"/><text text-anchor="middle" pointer-events="none" x="0" y="5" font-size="10px" fill="#2A2C34" font-family="sans-serif"> ORD</text></g><g class="node" transform="translate(76.4992879875419,50.3625787431397)"><circle class="outline" cx="0" cy="0" r="25" fill="#ECB5C9" stroke="#da7298" stroke-width="2px"/><text text-anchor="middle" pointer-events="none" font-family="sans-serif" dy="1.5625" font-size="25" fill="#2A2C34"/><text text-anchor="middle" pointer-events="none" x="0" y="5" font-size="10px" fill="#2A2C34" font-family="sans-serif"> LAS</text></g><g class="node" transform="translate(18.527656344489152,138.53621970556264)"><circle class="outline" cx="0" cy="0" r="25" fill="#ECB5C9" stroke="#da7298" stroke-width="2px"/><text text-anchor="middle" pointer-events="none" font-family="sans-serif" dy="1.5625" font-size="25" fill="#2A2C34"/><text text-anchor="middle" pointer-events="none" x="0" y="5" font-size="10px" fill="#2A2C34" font-family="sans-serif"> DEN</text></g></g></svg>