<svg xmlns="http://www.w3.org/2000/svg" width="181.81057739257812" height="242.85531616210938" viewBox="-9.17645263671875 -17.202613830566406 181.81057739257812 242.85531616210938"><title>Neo4j Graph Visualization</title><desc>Created using Neo4j (http://www.neo4j.com/)</desc><g class="layer relationships"><g class="relationship" transform="translate(143.6341273135921 11.797386242076728) rotate(531.1794571727812)"><path class="outline" fill="#A5ABB6" stroke="none" d="M 21.40063509461097,12.933012701892217 L 21.90063509461097,12.06698729810778 A 61.83232752763962 61.83232752763962 0 0 0 41.41636285272866,19.290874309157054 L 41.23198622546025,20.273729974713866 A 62.83232752763962 62.83232752763962 0 0 1 21.40063509461097,12.933012701892217 Z M 60.63604079027275,20.86251263097381 L 60.51159462952211,19.870286269161937 A 61.83232752763962 61.83232752763962 0 0 0 80.42940819849882,13.84294223477521 L 79.0896910742619,11.158699692264124 L 86.91592698506417,11.164309368640932 L 82.21569769748137,17.42193229145666 L 80.87598057324446,14.737689748945572 A 62.83232752763962 62.83232752763962 0 0 1 60.63604079027275,20.86251263097381"/><text text-anchor="middle" pointer-events="none" font-size="8px" fill="#000000" x="50.9263017097325" y="23.822273068684844" transform="rotate(180 50.9263017097325 20.822273068684844)" font-family="sans-serif">trek</text></g><g class="relationship" transform="translate(35.64197064457516 28.55510501742711) rotate(458.55934131702463)"><path class="outline" fill="#A5ABB6" stroke="none" d="M 25 0.5 L 39.97331476846284 0.5 L 39.97331476846284 -0.5 L 25 -0.5 Z M 59.30925226846284 0.5 L 74.28256703692568 0.5 L 74.28256703692568 3.5 L 81.28256703692568 0 L 74.28256703692568 -3.5 L 74.28256703692568 -0.5 L 59.30925226846284 -0.5 Z"/><text text-anchor="middle" pointer-events="none" font-size="8px" fill="#000000" x="49.64128351846284" y="3" transform="rotate(180 49.64128351846284 0)" font-family="sans-serif">trek</text></g><g class="relationship" transform="translate(19.82354754371023 133.65392302486535) rotate(396.037464371963)"><path class="outline" fill="#A5ABB6" stroke="none" d="M 25 0.5 L 40.37381603091805 0.5 L 40.37381603091805 -0.5 L 25 -0.5 Z M 59.70975353091805 0.5 L 75.0835695618361 0.5 L 75.0835695618361 3.5 L 82.0835695618361 0 L 75.0835695618361 -3.5 L 75.0835695618361 -0.5 L 59.70975353091805 -0.5 Z"/><text text-anchor="middle" pointer-events="none" font-size="8px" fill="#000000" x="50.04178478091805" y="3" font-family="sans-serif">trek</text></g><g class="relationship" transform="translate(143.6341273135921 11.797386242076728) rotate(531.1794571727812)"><path class="outline" fill="#A5ABB6" stroke="none" d="M 25 0.5 L 40.13644804466162 0.5 L 40.13644804466162 -0.5 L 25 -0.5 Z M 62.14816679466162 0.5 L 77.28461483932324 0.5 L 77.28461483932324 3.5 L 84.28461483932324 0 L 77.28461483932324 -3.5 L 77.28461483932324 -0.5 L 62.14816679466162 -0.5 Z"/><text text-anchor="middle" pointer-events="none" font-size="8px" fill="#000000" x="51.14230741966162" y="3" transform="rotate(180 51.14230741966162 0)" font-family="sans-serif">road</text></g><g class="relationship" transform="translate(143.6341273135921 11.797386242076728) rotate(531.1794571727812)"><path class="outline" fill="#A5ABB6" stroke="none" d="M 21.40063509461097,-12.933012701892217 L 21.90063509461097,-12.06698729810778 A 61.83232752763962 61.83232752763962 0 0 1 22.375215681988657,-12.338196701751066 L 21.88289096458522,-13.208608312791277 A 62.83232752763962 62.83232752763962 0 0 0 21.40063509461097,-12.933012701892217 Z M 80.37790236175061,-14.98353880854625 L 79.93925708808642,-14.084878514613074 A 61.83232752763962 61.83232752763962 0 0 1 80.42940819849882,-13.84294223477521 L 79.0896910742619,-11.158699692264124 L 86.91592698506417,-11.164309368640932 L 82.21569769748137,-17.42193229145666 L 80.87598057324446,-14.737689748945572 A 62.83232752763962 62.83232752763962 0 0 0 80.37790236175061,-14.98353880854625"/><text text-anchor="middle" pointer-events="none" font-size="8px" fill="#000000" x="50.92630170973248" y="-17.822273068684844" transform="rotate(180 50.92630170973248 -20.822273068684844)" font-family="sans-serif">PublicTransp…</text></g></g><g class="layer nodes"><g class="node" transform="translate(143.6341273135921,11.797386242076728)"><circle class="outline" cx="0" cy="0" r="25" fill="#F16667" stroke="#eb2728" stroke-width="2px"/><text text-anchor="middle" pointer-events="none" font-family="sans-serif" dy="1.5625" font-size="25" fill="#FFFFFF"/><text text-anchor="middle" pointer-events="none" x="0" y="5" font-size="10px" fill="#FFFFFF" font-family="sans-serif"> Darjeeling</text></g><g class="node" transform="translate(106.41480022331889,196.65269943743354)"><circle class="outline" cx="0" cy="0" r="25" fill="#8DCC93" stroke="#5db665" stroke-width="2px"/><text text-anchor="middle" pointer-events="none" font-family="sans-serif" dy="1.5625" font-size="25" fill="#2A2C34"/><text text-anchor="middle" pointer-events="none" x="0" y="5" font-size="10px" fill="#2A2C34" font-family="sans-serif"> Sandak…</text></g><g class="node" transform="translate(35.64197064457516,28.55510501742711)"><circle class="outline" cx="0" cy="0" r="25" fill="#F16667" stroke="#eb2728" stroke-width="2px"/><text text-anchor="middle" pointer-events="none" font-family="sans-serif" dy="1.5625" font-size="25" fill="#FFFFFF"/><text text-anchor="middle" pointer-events="none" x="0" y="5" font-size="10px" fill="#FFFFFF" font-family="sans-serif"> Rimbik</text></g><g class="node" transform="translate(19.82354754371023,133.65392302486535)"><circle class="outline" cx="0" cy="0" r="25" fill="#D9C8AE" stroke="#c0a378" stroke-width="2px"/><text text-anchor="middle" pointer-events="none" font-family="sans-serif" dy="1.5625" font-size="25" fill="#2A2C34"/><text text-anchor="middle" pointer-events="none" x="0" y="5" font-size="10px" fill="#2A2C34" font-family="sans-serif"> BhikeBh…</text></g></g></svg>