<svg xmlns="http://www.w3.org/2000/svg" width="163.7240447998047" height="243.236572265625" viewBox="-1.331686019897461 -20.62444305419922 163.7240447998047 243.236572265625"><title>Neo4j Graph Visualization</title><desc>Created using Neo4j (http://www.neo4j.com/)</desc><g class="layer relationships"><g class="relationship" transform="translate(133.39237068411694 8.375555977843755) rotate(521.9752063042372)"><path class="outline" fill="#A5ABB6" stroke="none" d="M 21.40063509461097,12.933012701892217 L 21.90063509461097,12.06698729810778 A 59.94104853480361 59.94104853480361 0 0 0 40.504882858785294,19.010038589310128 L 40.315258606606456,19.991895321723575 A 60.94104853480361 60.94104853480361 0 0 1 21.40063509461097,12.933012701892217 Z M 59.71890101984469,20.590152431695813 L 59.59012506592669,19.598478718374487 A 59.94104853480361 59.94104853480361 0 0 0 78.58676766772997,13.81474584397545 L 77.24967352479692,11.129195760112903 L 85.07590022056476,11.142451191108755 L 80.36955985830738,17.39547928912551 L 79.03246571537433,14.709929205262965 A 60.94104853480361 60.94104853480361 0 0 1 59.71890101984469,20.590152431695813"/><text text-anchor="middle" pointer-events="none" font-size="8px" fill="#000000" x="50.00851360024737" y="23.56885715389788" transform="rotate(180 50.00851360024737 20.56885715389788)" font-family="sans-serif">trek</text></g><g class="relationship" transform="translate(31.210510842492727 41.62534718471056) rotate(451.9029269841962)"><path class="outline" fill="#A5ABB6" stroke="none" d="M 25 0.5 L 40.16835193009448 0.5 L 40.16835193009448 -0.5 L 25 -0.5 Z M 59.50428943009448 0.5 L 74.67264136018896 0.5 L 74.67264136018896 3.5 L 81.67264136018896 0 L 74.67264136018896 -3.5 L 74.67264136018896 -0.5 L 59.50428943009448 -0.5 Z"/><text text-anchor="middle" pointer-events="none" font-size="8px" fill="#000000" x="49.83632068009448" y="3" transform="rotate(180 49.83632068009448 0)" font-family="sans-serif">trek</text></g><g class="relationship" transform="translate(27.668313963211656 148.23916081140675) rotate(385.0043303979454)"><path class="outline" fill="#A5ABB6" stroke="none" d="M 25 0.5 L 40.5041285541224 0.5 L 40.5041285541224 -0.5 L 25 -0.5 Z M 59.8400660541224 0.5 L 75.3441946082448 0.5 L 75.3441946082448 3.5 L 82.3441946082448 0 L 75.3441946082448 -3.5 L 75.3441946082448 -0.5 L 59.8400660541224 -0.5 Z"/><text text-anchor="middle" pointer-events="none" font-size="8px" fill="#000000" x="50.1720973041224" y="3" font-family="sans-serif">trek</text></g><g class="relationship" transform="translate(133.39237068411694 8.375555977843755) rotate(521.9752063042372)"><path class="outline" fill="#A5ABB6" stroke="none" d="M 25 0.5 L 39.22188275137632 0.5 L 39.22188275137632 -0.5 L 25 -0.5 Z M 61.23360150137632 0.5 L 75.45548425275264 0.5 L 75.45548425275264 3.5 L 82.45548425275264 0 L 75.45548425275264 -3.5 L 75.45548425275264 -0.5 L 61.23360150137632 -0.5 Z"/><text text-anchor="middle" pointer-events="none" font-size="8px" fill="#000000" x="50.22774212637632" y="3" transform="rotate(180 50.22774212637632 0)" font-family="sans-serif">road</text></g><g class="relationship" transform="translate(133.39237068411694 8.375555977843755) rotate(521.9752063042372)"><path class="outline" fill="#A5ABB6" stroke="none" d="M 21.40063509461097,-12.933012701892217 L 21.90063509461097,-12.06698729810778 A 59.94104853480361 59.94104853480361 0 0 1 23.471187125948457,-12.942602549266368 L 22.99738873685998,-13.823235893228066 A 60.94104853480361 60.94104853480361 0 0 0 21.40063509461097,-12.933012701892217 Z M 77.38390206219002,-15.500092103548667 L 76.96525579151407,-14.591942721536476 A 59.94104853480361 59.94104853480361 0 0 1 78.58676766772997,-13.81474584397545 L 77.24967352479692,-11.129195760112903 L 85.07590022056476,-11.142451191108755 L 80.36955985830738,-17.39547928912551 L 79.03246571537433,-14.709929205262965 A 60.94104853480361 60.94104853480361 0 0 0 77.38390206219002,-15.500092103548667"/><text text-anchor="middle" pointer-events="none" font-size="8px" fill="#000000" x="50.00851360024736" y="-17.56885715389788" transform="rotate(180 50.00851360024736 -20.56885715389788)" font-family="sans-serif">PublicTrans…</text></g></g><g class="layer nodes"><g class="node" transform="translate(133.39237068411694,8.375555977843755)"><circle class="outline" cx="0" cy="0" r="25" fill="#F16667" stroke="#eb2728" stroke-width="2px"/><text text-anchor="middle" pointer-events="none" font-family="sans-serif" dy="1.5625" font-size="25" fill="#FFFFFF"/><text text-anchor="middle" pointer-events="none" x="0" y="5" font-size="10px" fill="#FFFFFF" font-family="sans-serif"> Darjeeling</text></g><g class="node" transform="translate(124.9517644321673,193.61213052848598)"><circle class="outline" cx="0" cy="0" r="25" fill="#8DCC93" stroke="#5db665" stroke-width="2px"/><text text-anchor="middle" pointer-events="none" font-family="sans-serif" dy="1.5625" font-size="25" fill="#2A2C34"/><text text-anchor="middle" pointer-events="none" x="0" y="5" font-size="10px" fill="#2A2C34" font-family="sans-serif"> Sandak…</text></g><g class="node" transform="translate(31.210510842492727,41.62534718471056)"><circle class="outline" cx="0" cy="0" r="25" fill="#F16667" stroke="#eb2728" stroke-width="2px"/><text text-anchor="middle" pointer-events="none" font-family="sans-serif" dy="1.5625" font-size="25" fill="#FFFFFF"/><text text-anchor="middle" pointer-events="none" x="0" y="5" font-size="10px" fill="#FFFFFF" font-family="sans-serif"> Rimbik</text></g><g class="node" transform="translate(27.668313963211656,148.23916081140675)"><circle class="outline" cx="0" cy="0" r="25" fill="#D9C8AE" stroke="#c0a378" stroke-width="2px"/><text text-anchor="middle" pointer-events="none" font-family="sans-serif" dy="1.5625" font-size="25" fill="#2A2C34"/><text text-anchor="middle" pointer-events="none" x="0" y="5" font-size="10px" fill="#2A2C34" font-family="sans-serif"> BhikeBh…</text></g></g></svg>