<svg xmlns="http://www.w3.org/2000/svg" width="363.210693359375" height="365.12060546875" viewBox="-89.83727264404297 -77.04267883300781 363.210693359375 365.12060546875"><title>Neo4j Graph Visualization</title><desc>Created using Neo4j (http://www.neo4j.com/)</desc><g class="layer relationships"><g class="relationship" transform="translate(135.92020013688887 259.07791107986077) rotate(330.1432432303021)"><path class="outline" fill="#A5ABB6" stroke="none" d="M 21.40063509461097,12.933012701892217 L 21.90063509461097,12.06698729810778 A 57.593130487440774 57.593130487440774 0 0 0 24.24887955004945,13.350942462709625 L 23.789652545640486,14.239261413549677 A 58.593130487440774 58.593130487440774 0 0 1 21.40063509461097,12.933012701892217 Z M 74.27975060587136,15.827716785843798 L 73.87727082588086,14.912287910016303 A 57.593130487440774 57.593130487440774 0 0 0 76.3015798499727,13.778480764637512 L 74.96785935440639,11.091253636219376 L 82.7940632322094,11.114337463052504 L 78.0798738440611,17.36145026919503 L 76.74615334849479,14.67422314077689 A 58.593130487440774 58.593130487440774 0 0 1 74.27975060587136,15.827716785843798"/><text text-anchor="middle" pointer-events="none" font-size="8px" fill="#000000" x="48.87045182497709" y="23.25427538544219" font-family="sans-serif">PRODUCED</text></g><g class="relationship" transform="translate(135.92020013688887 259.07791107986077) rotate(330.1432432303021)"><path class="outline" fill="#A5ABB6" stroke="none" d="M 25 0.5 L 25.648498817846942 0.5 L 25.648498817846942 -0.5 L 25 -0.5 Z M 72.53912381784694 0.5 L 73.18762263569388 0.5 L 73.18762263569388 3.5 L 80.18762263569388 0 L 73.18762263569388 -3.5 L 73.18762263569388 -0.5 L 72.53912381784694 -0.5 Z"/><text text-anchor="middle" pointer-events="none" font-size="8px" fill="#000000" x="49.09381131784694" y="3" font-family="sans-serif">DIRECTED</text></g><g class="relationship" transform="translate(135.92020013688887 259.07791107986077) rotate(330.1432432303021)"><path class="outline" fill="#A5ABB6" stroke="none" d="M 21.40063509461097,-12.933012701892217 L 21.90063509461097,-12.06698729810778 A 57.593130487440774 57.593130487440774 0 0 1 31.52605787088464,-16.498583157015766 L 31.193185837272445,-17.44155516574078 A 58.593130487440774 58.593130487440774 0 0 0 21.40063509461097,-12.933012701892217 Z M 66.68956475913292,-18.558297179752223 L 66.41662552056076,-17.596265905807535 A 57.593130487440774 57.593130487440774 0 0 1 76.3015798499727,-13.778480764637512 L 74.96785935440639,-11.091253636219376 L 82.7940632322094,-11.114337463052504 L 78.0798738440611,-17.36145026919503 L 76.74615334849479,-14.67422314077689 A 58.593130487440774 58.593130487440774 0 0 0 66.68956475913292,-18.558297179752223"/><text text-anchor="middle" pointer-events="none" font-size="8px" fill="#000000" x="48.87045182497707" y="-17.25427538544219" font-family="sans-serif">WROTE</text></g><g class="relationship" transform="translate(244.37341895866646 15.615518049227651) rotate(200.59122951785565)"><path class="outline" fill="#A5ABB6" stroke="none" d="M 24.018736134675446,6.953439040707552 L 24.277555179777966,5.987513214418485 A 99.54713540065693 99.54713540065693 0 0 0 30.738718878776616,7.489959212480628 L 30.54480540501971,8.470977848743729 A 100.54713540065693 100.54713540065693 0 0 1 24.018736134675446,6.953439040707552 Z M 66.3010166047888,9.05624709019078 L 66.13931366981075,8.069407609414156 A 99.54713540065693 99.54713540065693 0 0 0 72.64618799089588,6.779226656232414 L 71.96498491479372,3.857589723088776 L 79.57687468091473,5.676692300851316 L 73.55445875903209,10.674742567090597 L 72.87325568292992,7.753105633946959 A 100.54713540065693 100.54713540065693 0 0 1 66.3010166047888,9.05624709019078"/><text text-anchor="middle" pointer-events="none" font-size="8px" fill="#000000" x="48.40486513409729" y="12.866099875540598" transform="rotate(180 48.40486513409729 9.866099875540598)" font-family="sans-serif">WROTE</text></g><g class="relationship" transform="translate(244.37341895866646 15.615518049227651) rotate(200.59122951785565)"><path class="outline" fill="#A5ABB6" stroke="none" d="M 24.018736134675446,-6.953439040707552 L 24.277555179777966,-5.987513214418485 A 99.54713540065693 99.54713540065693 0 0 1 25.345464682965776,-6.267321427870584 L 25.09737331474607,-7.236058065463524 A 100.54713540065693 100.54713540065693 0 0 0 24.018736134675446,-6.953439040707552 Z M 71.78594680811017,-8.000271752423828 L 71.56969303802911,-7.0239345632695205 A 99.54713540065693 99.54713540065693 0 0 1 72.64618799089588,-6.779226656232414 L 71.96498491479372,-3.857589723088776 L 79.57687468091473,-5.676692300851316 L 73.55445875903209,-10.674742567090597 L 72.87325568292992,-7.753105633946959 A 100.54713540065693 100.54713540065693 0 0 0 71.78594680811017,-8.000271752423828"/><text text-anchor="middle" pointer-events="none" font-size="8px" fill="#000000" x="48.40486513409726" y="-6.866099875540598" transform="rotate(180 48.40486513409726 -9.866099875540598)" font-family="sans-serif">DIRECTED</text></g><g class="relationship" transform="translate(46.85349356477494 -48.04267676456842) rotate(375.1334323841613)"><path class="outline" fill="#A5ABB6" stroke="none" d="M 24.018736134675446,6.953439040707552 L 24.277555179777966,5.987513214418485 A 99.37198745626274 99.37198745626274 0 0 0 30.695525445659868,7.4810195669146395 L 30.501291707042302,8.461974843562174 A 100.37198745626274 100.37198745626274 0 0 1 24.018736134675446,6.953439040707552 Z M 66.25713703888569,9.047700762135278 L 66.09513746741338,8.060909933822202 A 99.37198745626274 99.37198745626274 0 0 0 72.55858210159356,6.778417431085093 L 71.87745461498544,3.8567628746758476 L 79.48929731431649,5.676062388401018 L 73.46675208373772,10.673956839630753 L 72.7856245971296,7.752302283221508 A 100.37198745626274 100.37198745626274 0 0 1 66.25713703888569,9.047700762135278"/><text text-anchor="middle" pointer-events="none" font-size="8px" fill="#000000" x="48.361108222266495" y="12.860134159670253" font-family="sans-serif">WROTE</text></g><g class="relationship" transform="translate(46.85349356477494 -48.04267676456842) rotate(375.1334323841613)"><path class="outline" fill="#A5ABB6" stroke="none" d="M 24.018736134675446,-6.953439040707552 L 24.277555179777966,-5.987513214418485 A 99.37198745626274 99.37198745626274 0 0 1 25.302780288898198,-6.256369712013338 L 25.054278287213688,-7.225001094510731 A 100.37198745626274 100.37198745626274 0 0 0 24.018736134675446,-6.953439040707552 Z M 71.74174339005636,-7.989800755361131 L 71.52510101943095,-7.013549720406587 A 99.37198745626274 99.37198745626274 0 0 1 72.55858210159356,-6.778417431085093 L 71.87745461498544,-3.8567628746758476 L 79.48929731431649,-5.676062388401018 L 73.46675208373772,-10.673956839630753 L 72.7856245971296,-7.752302283221508 A 100.37198745626274 100.37198745626274 0 0 0 71.74174339005636,-7.989800755361131"/><text text-anchor="middle" pointer-events="none" font-size="8px" fill="#000000" x="48.36110822226645" y="-6.8601341596702525" font-family="sans-serif">DIRECTED</text></g><g class="relationship" transform="translate(-60.83727377139903 95.45845962086983) rotate(432.0970478452573)"><path class="outline" fill="#A5ABB6" stroke="none" d="M 21.40063509461097,12.933012701892217 L 21.90063509461097,12.06698729810778 A 57.178957092301786 57.178957092301786 0 0 0 24.063830315607028,13.254422286688566 L 23.601662331631807,14.14121468324386 A 58.178957092301786 58.178957092301786 0 0 1 21.40063509461097,12.933012701892217 Z M 74.07026053238552,15.734718884867654 L 73.66495682688573,14.820536787959092 A 57.178957092301786 57.178957092301786 0 0 0 75.89875311564218,13.771933165714724 L 74.56564173514616,11.084403808257953 L 82.39184017979065,11.109261504133478 L 77.67623495630355,17.355305642323753 L 76.34312357580752,14.667776284866981 A 58.178957092301786 58.178957092301786 0 0 1 74.07026053238552,15.734718884867654"/><text text-anchor="middle" pointer-events="none" font-size="8px" fill="#000000" x="48.66985543458099" y="23.198785572214916" font-family="sans-serif">PRODUCED</text></g><g class="relationship" transform="translate(-60.83727377139903 95.45845962086983) rotate(432.0970478452573)"><path class="outline" fill="#A5ABB6" stroke="none" d="M 25 0.5 L 31.007240329298533 0.5 L 31.007240329298533 -0.5 L 25 -0.5 Z M 66.78067782929853 0.5 L 72.78791815859707 0.5 L 72.78791815859707 3.5 L 79.78791815859707 0 L 72.78791815859707 -3.5 L 72.78791815859707 -0.5 L 66.78067782929853 -0.5 Z"/><text text-anchor="middle" pointer-events="none" font-size="8px" fill="#000000" x="48.89395907929853" y="3" font-family="sans-serif">WROTE</text></g><g class="relationship" transform="translate(-60.83727377139903 95.45845962086983) rotate(432.0970478452573)"><path class="outline" fill="#A5ABB6" stroke="none" d="M 21.40063509461097,-12.933012701892217 L 21.90063509461097,-12.06698729810778 A 57.178957092301786 57.178957092301786 0 0 1 26.236618217968815,-14.328873593773636 L 25.812450015956287,-15.23445701698845 A 58.178957092301786 58.178957092301786 0 0 0 21.40063509461097,-12.933012701892217 Z M 71.79490876458604,-16.686315079807393 L 71.42871459080558,-15.755776618974501 A 57.178957092301786 57.178957092301786 0 0 1 75.89875311564218,-13.771933165714724 L 74.56564173514616,-11.084403808257953 L 82.39184017979065,-11.109261504133478 L 77.67623495630355,-17.355305642323753 L 76.34312357580752,-14.667776284866981 A 58.178957092301786 58.178957092301786 0 0 0 71.79490876458604,-16.686315079807393"/><text text-anchor="middle" pointer-events="none" font-size="8px" fill="#000000" x="48.669855434580995" y="-17.198785572214916" font-family="sans-serif">DIRECTED</text></g></g><g class="layer nodes"><g class="node" transform="translate(135.92020013688887,259.07791107986077)"><circle class="outline" cx="0" cy="0" r="25" fill="#F79767" stroke="#f36924" stroke-width="2px"/><text text-anchor="middle" pointer-events="none" font-family="sans-serif" dy="1.5625" font-size="25" fill="#FFFFFF"/><text text-anchor="middle" pointer-events="none" font-family="sans-serif" dy="1.5625" font-size="25" fill="#FFFFFF"/><text text-anchor="middle" pointer-events="none" x="0" y="0" font-size="10px" fill="#FFFFFF" font-family="sans-serif"> Cameron</text><text text-anchor="middle" pointer-events="none" x="0" y="10" font-size="10px" fill="#FFFFFF" font-family="sans-serif"> Crowe</text></g><g class="node" transform="translate(227.1465566783644,206.7120077847134)"><circle class="outline" cx="0" cy="0" r="25" fill="#57C7E3" stroke="#23b3d7" stroke-width="2px"/><text text-anchor="middle" pointer-events="none" font-family="sans-serif" dy="1.5625" font-size="25" fill="#2A2C34"/><text text-anchor="middle" pointer-events="none" font-family="sans-serif" dy="1.5625" font-size="25" fill="#2A2C34"/><text text-anchor="middle" pointer-events="none" x="0" y="0" font-size="10px" fill="#2A2C34" font-family="sans-serif"> Jerry</text><text text-anchor="middle" pointer-events="none" x="0" y="10" font-size="10px" fill="#2A2C34" font-family="sans-serif"> Maguire</text></g><g class="node" transform="translate(244.37341895866646,15.615518049227651)"><circle class="outline" cx="0" cy="0" r="25" fill="#F79767" stroke="#f36924" stroke-width="2px"/><text text-anchor="middle" pointer-events="none" font-family="sans-serif" dy="1.5625" font-size="25" fill="#FFFFFF"/><text text-anchor="middle" pointer-events="none" font-family="sans-serif" dy="1.5625" font-size="25" fill="#FFFFFF"/><text text-anchor="middle" pointer-events="none" x="0" y="0" font-size="10px" fill="#FFFFFF" font-family="sans-serif"> Lana</text><text text-anchor="middle" pointer-events="none" x="0" y="10" font-size="10px" fill="#FFFFFF" font-family="sans-serif"> Wacho…</text></g><g class="node" transform="translate(147.0889130322771,-20.934329055242674)"><circle class="outline" cx="0" cy="0" r="25" fill="#57C7E3" stroke="#23b3d7" stroke-width="2px"/><text text-anchor="middle" pointer-events="none" font-family="sans-serif" dy="1.5625" font-size="25" fill="#2A2C34"/><text text-anchor="middle" pointer-events="none" font-family="sans-serif" dy="1.5625" font-size="25" fill="#2A2C34"/><text text-anchor="middle" pointer-events="none" x="0" y="0" font-size="10px" fill="#2A2C34" font-family="sans-serif"> Speed</text><text text-anchor="middle" pointer-events="none" x="0" y="10" font-size="10px" fill="#2A2C34" font-family="sans-serif"> Racer</text></g><g class="node" transform="translate(46.85349356477494,-48.04267676456842)"><circle class="outline" cx="0" cy="0" r="25" fill="#F79767" stroke="#f36924" stroke-width="2px"/><text text-anchor="middle" pointer-events="none" font-family="sans-serif" dy="1.5625" font-size="25" fill="#FFFFFF"/><text text-anchor="middle" pointer-events="none" font-family="sans-serif" dy="1.5625" font-size="25" fill="#FFFFFF"/><text text-anchor="middle" pointer-events="none" x="0" y="0" font-size="10px" fill="#FFFFFF" font-family="sans-serif"> Andy</text><text text-anchor="middle" pointer-events="none" x="0" y="10" font-size="10px" fill="#FFFFFF" font-family="sans-serif"> Wacho…</text></g><g class="node" transform="translate(-60.83727377139903,95.45845962086983)"><circle class="outline" cx="0" cy="0" r="25" fill="#F79767" stroke="#f36924" stroke-width="2px"/><text text-anchor="middle" pointer-events="none" font-family="sans-serif" dy="1.5625" font-size="25" fill="#FFFFFF"/><text text-anchor="middle" pointer-events="none" font-family="sans-serif" dy="1.5625" font-size="25" fill="#FFFFFF"/><text text-anchor="middle" pointer-events="none" x="0" y="0" font-size="10px" fill="#FFFFFF" font-family="sans-serif"> Nancy</text><text text-anchor="middle" pointer-events="none" x="0" y="10" font-size="10px" fill="#FFFFFF" font-family="sans-serif"> Meyers</text></g><g class="node" transform="translate(-28.624875874453554,195.172396529116)"><circle class="outline" cx="0" cy="0" r="25" fill="#57C7E3" stroke="#23b3d7" stroke-width="2px"/><text text-anchor="middle" pointer-events="none" font-family="sans-serif" dy="1.5625" font-size="25" fill="#2A2C34"/><text text-anchor="middle" pointer-events="none" x="0" y="5" font-size="10px" fill="#2A2C34" font-family="sans-serif"> Somethi…</text></g></g></svg>